<svg width="688" height="1125" viewBox="0 0 688 1125" fill="none" xmlns="http://www.w3.org/2000/svg">
<rect width="688" height="1125" fill="#FAFAFA"/>
<mask id="mask0_24_30" style="mask-type:luminance" maskUnits="userSpaceOnUse" x="0" y="0" width="688" height="1125">
<rect width="688" height="1125" fill="white"/>
</mask>
<g mask="url(#mask0_24_30)">
<path d="M120.016 -152.654C125.622 -112.584 107.677 -76.9541 79.936 -73.0733C52.1947 -69.1926 25.1618 -98.5304 19.5563 -138.601C13.9508 -178.672 31.8954 -214.302 59.6367 -218.182C87.378 -222.063 114.411 -192.725 120.016 -152.654Z" fill="#F4F4F4"/>
<path d="M22.5792 -116.992L18.7756 -144.182L119.236 -158.236L123.039 -131.046C125.482 -113.587 114.851 -76.9362 108.224 -67.9844C101.597 -59.0326 104.741 -64.7249 98.154 -55.4868C91.5673 -46.2488 90.5262 -25.5304 93.4089 -4.92325L102.538 60.3328L94.8099 61.4139L85.6812 -3.84222C82.7985 -24.4494 76.112 -44.0868 67.2432 -51.1627C58.3745 -58.2387 62.9589 -53.6274 54.1302 -60.4172C45.3015 -67.207 25.0214 -99.5333 22.5792 -116.992Z" fill="#F4F4F4"/>
<path d="M179.353 271.51C173.747 231.439 146.714 202.102 118.973 205.982C91.2317 209.863 73.2871 245.493 78.8926 285.563C84.4981 325.634 111.531 354.972 139.272 351.091C167.013 347.21 184.958 311.581 179.353 271.51Z" fill="#F4F4F4"/>
<path d="M75.8697 263.954L79.6733 291.144L180.133 277.091L176.33 249.901C173.887 232.442 153.607 200.116 144.779 193.326C135.95 186.536 140.535 191.148 131.666 184.072C122.797 176.996 116.11 157.358 113.228 136.751L104.099 71.495L96.3714 72.5761L105.5 137.832C108.383 158.439 107.342 179.158 100.755 188.396C94.1684 197.634 97.3115 191.941 90.6849 200.893C84.0582 209.845 73.4273 246.496 75.8697 263.954Z" fill="#F4F4F4"/>
<path d="M318.563 87.0163C278.493 92.6218 242.863 74.6772 238.982 46.9359C235.102 19.1947 264.439 -7.8382 304.51 -13.4437C344.581 -19.0492 380.21 -1.10457 384.091 26.6367C387.972 54.378 358.634 81.4108 318.563 87.0163Z" fill="#F4F4F4"/>
<path d="M282.901 -10.4208L310.091 -14.2244L324.144 86.2356L296.954 90.0392C279.496 92.4815 242.845 81.8507 233.893 75.224C224.941 68.5974 230.634 71.7406 221.396 65.1539C212.158 58.5673 191.439 57.5262 170.832 60.4089L105.576 69.5376L104.495 61.8099L169.751 52.6812C190.358 49.7985 209.996 43.112 217.072 34.2432C224.148 25.3744 219.536 29.9589 226.326 21.1302C233.116 12.3015 265.442 -7.97858 282.901 -10.4208Z" fill="#F4F4F4"/>
<path d="M-105.601 146.353C-65.5304 140.747 -36.1926 113.714 -40.0733 85.973C-43.9541 58.2317 -79.5837 40.2871 -119.654 45.8926C-159.725 51.4981 -189.063 78.5309 -185.182 106.272C-181.302 134.013 -145.672 151.958 -105.601 146.353Z" fill="#F4F4F4"/>
<path d="M-98.0455 42.8697L-125.236 46.6733L-111.182 147.133L-83.9922 143.33C-66.5333 140.887 -34.207 120.607 -27.4172 111.779C-20.6274 102.95 -25.2387 107.534 -18.1627 98.6657C-11.0868 89.7969 8.55061 83.1104 29.1578 80.2277L94.4139 71.0991L93.3328 63.3714L28.0768 72.5C7.46958 75.3828 -13.2488 74.3416 -22.4868 67.755C-31.7249 61.1684 -26.0326 64.3115 -34.9844 57.6849C-43.9362 51.0582 -80.5867 40.4273 -98.0455 42.8697Z" fill="#F4F4F4"/>
<path d="M268.318 -74.6365C244.07 -42.2467 206.235 -29.5985 183.811 -46.3858C161.387 -63.1732 162.867 -103.039 187.115 -135.429C211.363 -167.819 249.199 -180.467 271.622 -163.68C294.046 -146.892 292.567 -107.026 268.318 -74.6365Z" fill="#F4F4F4"/>
<path d="M174.039 -117.962L190.492 -139.94L271.696 -79.1478L255.242 -57.1697C244.677 -43.0574 211.314 -24.5326 200.304 -22.8468C189.295 -21.1611 195.536 -22.9872 184.353 -21.0701C173.171 -19.153 157.837 -5.18103 145.367 11.4761L105.878 64.2236L99.6313 59.5473L139.12 6.79975C151.591 -9.85736 160.678 -28.5056 159.368 -39.7754C158.057 -51.0452 158.063 -44.5427 156.579 -55.5812C155.096 -66.6196 163.473 -103.85 174.039 -117.962Z" fill="#F4F4F4"/>
<path d="M11.3811 268.029C35.6295 235.639 37.1087 195.773 14.685 178.986C-7.73871 162.198 -45.5739 174.847 -69.8223 207.237C-94.0707 239.626 -95.5499 279.492 -73.1262 296.28C-50.7025 313.067 -12.8673 300.419 11.3811 268.029Z" fill="#F4F4F4"/>
<path d="M-56.7459 189.77L-73.1997 211.748L8.00374 272.54L24.4575 250.562C35.0226 236.45 43.4001 199.22 41.9166 188.181C40.4331 177.143 40.4388 183.645 39.1285 172.375C37.8182 161.106 46.9054 142.457 59.3757 125.8L98.8648 73.0528L92.6183 68.3765L53.1293 121.124C40.659 137.781 25.3254 151.753 14.1428 153.67C2.96029 155.587 9.20103 153.761 -1.80831 155.447C-12.8177 157.133 -46.1809 175.657 -56.7459 189.77Z" fill="#F4F4F4"/>
<path d="M240.507 235.37C208.117 211.121 195.469 173.286 212.256 150.862C229.044 128.439 268.91 129.918 301.3 154.166C333.689 178.415 346.338 216.25 329.55 238.674C312.763 261.097 272.897 259.618 240.507 235.37Z" fill="#F4F4F4"/>
<path d="M283.833 141.09L305.811 157.544L245.018 238.747L223.04 222.293C208.928 211.728 190.403 178.365 188.717 167.356C187.032 156.346 188.858 162.587 186.941 151.404C185.024 140.222 171.052 124.888 154.394 112.418L101.647 72.929L106.323 66.6825L159.071 106.172C175.728 118.642 194.376 127.729 205.646 126.419C216.916 125.109 210.413 125.114 221.452 123.631C232.49 122.147 269.72 130.525 283.833 141.09Z" fill="#F4F4F4"/>
<path d="M-102.479 -21.1401C-70.0892 3.10829 -30.2233 4.5875 -13.4359 -17.8362C3.35143 -40.2599 -9.29685 -78.0951 -41.6866 -102.344C-74.0764 -126.592 -113.942 -128.071 -130.73 -105.647C-147.517 -83.2237 -134.869 -45.3885 -102.479 -21.1401Z" fill="#F4F4F4"/>
<path d="M-24.2198 -89.2671L-46.198 -105.721L-106.99 -24.5175L-85.0122 -8.06367C-70.8999 2.50139 -33.6697 10.8789 -22.6313 9.39539C-11.5929 7.91191 -18.0953 7.91756 -6.82553 6.60727C4.44424 5.29699 23.0925 14.3842 39.7496 26.8545L92.4971 66.3435L97.1735 60.0971L44.4259 20.6081C27.7688 8.13783 13.7969 -7.19584 11.8798 -18.3784C9.96271 -29.5609 11.7888 -23.3202 10.1031 -34.3295C8.4173 -45.3389 -10.1075 -78.7021 -24.2198 -89.2671Z" fill="#F4F4F4"/>
<path d="M-31.2533 67.6681L225.478 31.7541L230.162 65.2408L-26.5689 101.155L-31.2533 67.6681Z" fill="#F4F4F4"/>
<path d="M98.2408 -64.2533L134.155 192.478L100.668 197.162L64.7541 -59.5689L98.2408 -64.2533Z" fill="#F4F4F4"/>
<path d="M2.16853 -28.0525L209.686 127.309L189.422 154.376L-18.096 -0.985006L2.16853 -28.0525Z" fill="#F4F4F4"/>
<path d="M196.91 -31.2438L32.6049 188.22L5.53736 167.956L169.843 -51.5084L196.91 -31.2438Z" fill="#F4F4F4"/>
<path d="M715.337 173.492C707.514 196.749 688.119 211.211 672.018 205.795C655.917 200.378 649.207 177.134 657.031 153.877C664.855 130.621 684.25 116.158 700.35 121.575C716.451 126.991 723.161 150.235 715.337 173.492Z" fill="#F4F4F4"/>
<path d="M652.812 166.419L658.121 150.638L716.427 170.253L711.118 186.034C707.71 196.167 692.006 213.166 685.984 216.225C679.962 219.285 683.21 217.049 677.133 220.274C671.055 223.5 664.873 234.457 660.849 246.417L648.108 284.291L643.623 282.782L656.364 244.908C660.388 232.948 662.085 220.482 659.192 214.239C656.3 207.996 657.536 211.741 654.588 205.664C651.64 199.587 649.403 176.552 652.812 166.419Z" fill="#F4F4F4"/>
<path d="M632.521 419.674C640.344 396.418 633.634 373.173 617.533 367.757C601.433 362.341 582.038 376.803 574.214 400.06C566.39 423.317 573.1 446.561 589.201 451.977C605.302 457.394 624.697 442.931 632.521 419.674Z" fill="#F4F4F4"/>
<path d="M578.433 387.518L573.124 403.299L631.431 422.914L636.74 407.133C640.148 397 637.912 373.965 634.964 367.888C632.015 361.811 633.252 365.556 630.359 359.313C627.467 353.07 629.164 340.604 633.188 328.644L645.929 290.77L641.444 289.261L628.703 327.135C624.679 339.095 618.497 350.052 612.419 353.277C606.341 356.503 609.59 354.267 603.568 357.327C597.546 360.386 581.842 377.385 578.433 387.518Z" fill="#F4F4F4"/>
<path d="M758.06 357.338C734.803 349.514 720.34 330.119 725.757 314.018C731.173 297.917 754.418 291.207 777.674 299.031C800.931 306.855 815.394 326.25 809.977 342.35C804.561 358.451 781.317 365.161 758.06 357.338Z" fill="#F4F4F4"/>
<path d="M765.133 294.812L780.914 300.121L761.299 358.427L745.518 353.118C735.385 349.71 718.386 334.006 715.326 327.984C712.267 321.962 714.503 325.21 711.277 319.133C708.052 313.055 697.095 306.873 685.135 302.849L647.261 290.108L648.769 285.623L686.644 298.364C698.604 302.388 711.069 304.085 717.313 301.192C723.556 298.3 719.811 299.536 725.888 296.588C731.965 293.64 755 291.403 765.133 294.812Z" fill="#F4F4F4"/>
<path d="M511.877 274.521C535.134 282.344 558.378 275.634 563.795 259.533C569.211 243.433 554.749 224.038 531.492 216.214C508.235 208.391 484.991 215.1 479.575 231.201C474.158 247.302 488.621 266.697 511.877 274.521Z" fill="#F4F4F4"/>
<path d="M544.034 220.433L528.253 215.125L508.638 273.431L524.419 278.74C534.552 282.148 557.587 279.912 563.664 276.964C569.74 274.015 565.996 275.252 572.239 272.36C578.482 269.467 590.948 271.164 602.908 275.188L640.782 287.929L642.291 283.444L604.417 270.703C592.457 266.679 581.5 260.497 578.274 254.419C575.049 248.341 577.285 251.59 574.225 245.568C571.166 239.546 554.167 223.842 544.034 220.433Z" fill="#F4F4F4"/>
<path d="M774.633 256.023C752.697 267.019 728.743 263.622 721.131 248.436C713.519 233.249 725.13 212.025 747.066 201.029C769.002 190.033 792.955 193.43 800.568 208.616C808.18 223.803 796.569 245.028 774.633 256.023Z" fill="#F4F4F4"/>
<path d="M735.236 206.959L750.121 199.497L777.688 254.492L762.804 261.953C753.246 266.744 730.125 267.747 723.696 265.677C717.267 263.606 721.147 264.308 714.561 262.316C707.975 260.324 695.869 263.746 684.588 269.4L648.865 287.307L646.745 283.077L682.468 265.17C693.749 259.515 703.734 251.863 706.079 245.394C708.424 238.926 706.664 242.454 708.852 236.064C711.04 229.674 725.679 211.749 735.236 206.959Z" fill="#F4F4F4"/>
<path d="M542.346 372.243C564.282 361.248 575.893 340.023 568.28 324.836C560.668 309.65 536.714 306.253 514.778 317.249C492.843 328.245 481.231 349.469 488.844 364.656C496.456 379.842 520.41 383.239 542.346 372.243Z" fill="#F4F4F4"/>
<path d="M526.608 311.319L511.723 318.78L539.29 373.775L554.175 366.314C563.733 361.523 578.371 343.598 580.559 337.208C582.748 330.818 580.988 334.347 583.332 327.878C585.677 321.409 595.663 313.757 606.944 308.102L642.667 290.195L640.546 285.965L604.823 303.872C593.542 309.527 581.436 312.949 574.85 310.957C568.264 308.965 572.145 309.666 565.716 307.596C559.286 305.525 536.165 306.528 526.608 311.319Z" fill="#F4F4F4"/>
<path d="M675.494 416.65C664.498 394.715 667.895 370.761 683.081 363.148C698.268 355.536 719.492 367.147 730.488 389.083C741.484 411.019 738.087 434.973 722.901 442.585C707.714 450.198 686.489 438.586 675.494 416.65Z" fill="#F4F4F4"/>
<path d="M724.558 377.254L732.02 392.138L677.025 419.706L669.564 404.821C664.773 395.264 663.77 372.143 665.84 365.713C667.911 359.284 667.209 363.165 669.201 356.579C671.193 349.993 667.771 337.886 662.117 326.606L644.21 290.883L648.44 288.762L666.347 324.485C672.002 335.766 679.654 345.752 686.123 348.096C692.591 350.441 689.063 348.681 695.453 350.869C701.843 353.058 719.768 367.696 724.558 377.254Z" fill="#F4F4F4"/>
<path d="M558.984 184.508C569.98 206.444 591.204 218.055 606.391 210.443C621.577 202.83 624.974 178.877 613.978 156.941C602.983 135.005 581.758 123.394 566.571 131.006C551.385 138.619 547.988 162.572 558.984 184.508Z" fill="#F4F4F4"/>
<path d="M619.908 168.77L612.447 153.886L557.452 181.453L564.913 196.337C569.704 205.895 587.629 220.534 594.019 222.722C600.409 224.91 596.88 223.15 603.349 225.495C609.818 227.84 617.47 237.825 623.125 249.106L641.032 284.829L645.262 282.709L627.355 246.986C621.7 235.705 618.279 223.599 620.271 217.013C622.263 210.427 621.561 214.307 623.632 207.878C625.702 201.449 624.699 178.328 619.908 168.77Z" fill="#F4F4F4"/>
<path d="M573.542 251.995L722.547 302.121L716.009 321.557L567.004 271.431L573.542 251.995Z" fill="#F4F4F4"/>
<path d="M679.557 215.542L629.431 364.548L609.995 358.009L660.121 209.004L679.557 215.542Z" fill="#F4F4F4"/>
<path d="M617.626 209.132L688.073 349.675L669.741 358.863L599.294 218.321L617.626 209.132Z" fill="#F4F4F4"/>
<path d="M724.131 260.201L575.498 334.705L566.309 316.373L714.943 241.87L724.131 260.201Z" fill="#F4F4F4"/>
<path d="M509.978 41.2773C506.246 52.3715 496.994 59.2706 489.313 56.6868C481.632 54.103 478.432 43.0147 482.164 31.9205C485.896 20.8262 495.148 13.9271 502.828 16.5109C510.509 19.0947 513.71 30.183 509.978 41.2773Z" fill="#F4F4F4"/>
<path d="M480.151 37.9033L482.684 30.3752L510.498 39.732L507.965 47.2601C506.339 52.0938 498.848 60.203 495.975 61.6625C493.102 63.1219 494.652 62.0554 491.753 63.594C488.853 65.1327 485.904 70.3594 483.985 76.0649L477.907 94.1321L475.768 93.4124L481.845 75.3451C483.765 69.6396 484.574 63.6932 483.195 60.715C481.815 57.7369 482.405 59.5231 480.998 56.6242C479.592 53.7253 478.525 42.737 480.151 37.9033Z" fill="#F4F4F4"/>
<path d="M470.471 158.714C474.203 147.62 471.003 136.532 463.322 133.948C455.641 131.364 446.389 138.263 442.657 149.358C438.925 160.452 442.126 171.54 449.807 174.124C457.487 176.708 466.739 169.809 470.471 158.714Z" fill="#F4F4F4"/>
<path d="M444.67 143.375L442.137 150.903L469.951 160.26L472.484 152.732C474.11 147.898 473.043 136.91 471.637 134.011C470.23 131.112 470.82 132.898 469.44 129.92C468.061 126.942 468.87 120.995 470.79 115.29L476.867 97.2226L474.728 96.5028L468.65 114.57C466.731 120.276 463.782 125.502 460.882 127.041C457.983 128.58 459.533 127.513 456.66 128.972C453.787 130.432 446.296 138.541 444.67 143.375Z" fill="#F4F4F4"/>
<path d="M530.358 128.978C519.263 125.246 512.364 115.994 514.948 108.313C517.532 100.632 528.62 97.4315 539.714 101.164C550.809 104.896 557.708 114.148 555.124 121.828C552.54 129.509 541.452 132.71 530.358 128.978Z" fill="#F4F4F4"/>
<path d="M533.732 99.151L541.26 101.683L531.903 129.498L524.375 126.965C519.541 125.339 511.432 117.848 509.973 114.975C508.513 112.102 509.58 113.652 508.041 110.753C506.502 107.853 501.276 104.904 495.57 102.985L477.503 96.9071L478.223 94.7675L496.29 100.845C501.995 102.765 507.942 103.574 510.92 102.195C513.898 100.815 512.112 101.405 515.011 99.9982C517.91 98.5918 528.898 97.5249 533.732 99.151Z" fill="#F4F4F4"/>
<path d="M412.92 89.4713C424.015 93.2034 435.103 90.0026 437.687 82.3219C440.271 74.6413 433.372 65.3894 422.277 61.6572C411.183 57.925 400.095 61.1259 397.511 68.8066C394.927 76.4872 401.826 85.7391 412.92 89.4713Z" fill="#F4F4F4"/>
<path d="M428.26 63.6698L420.732 61.1374L411.375 88.9515L418.903 91.4839C423.737 93.11 434.725 92.0432 437.624 90.6367C440.523 89.2302 438.737 89.8202 441.715 88.4404C444.693 87.0606 450.64 87.8702 456.345 89.7895L474.412 95.8674L475.132 93.7279L457.065 87.65C451.359 85.7306 446.133 82.7815 444.594 79.8822C443.055 76.9829 444.122 78.5325 442.662 75.6599C441.203 72.7873 433.094 65.2959 428.26 63.6698Z" fill="#F4F4F4"/>
<path d="M538.264 80.6475C527.8 85.8929 516.373 84.2724 512.741 77.028C509.11 69.7836 514.649 59.6586 525.113 54.4133C535.577 49.1679 547.004 50.7884 550.635 58.0328C554.267 65.2772 548.728 75.4022 538.264 80.6475Z" fill="#F4F4F4"/>
<path d="M519.47 57.2419L526.571 53.6827L539.721 79.917L532.621 83.4762C528.061 85.7616 517.032 86.2402 513.965 85.2525C510.898 84.2648 512.749 84.5994 509.607 83.6492C506.466 82.6989 500.691 84.3312 495.309 87.0288L478.268 95.571L477.257 93.5529L494.298 85.0107C499.679 82.3132 504.443 78.6629 505.561 75.5771C506.68 72.4913 505.84 74.1747 506.884 71.1263C507.928 68.078 514.911 59.5273 519.47 57.2419Z" fill="#F4F4F4"/>
<path d="M427.455 136.088C437.919 130.843 443.458 120.718 439.827 113.474C436.195 106.229 424.769 104.609 414.304 109.854C403.84 115.099 398.301 125.224 401.933 132.469C405.564 139.713 416.991 141.334 427.455 136.088Z" fill="#F4F4F4"/>
<path d="M419.947 107.025L412.847 110.585L425.997 136.819L433.098 133.26C437.657 130.974 444.64 122.424 445.684 119.375C446.728 116.327 445.888 118.01 447.007 114.925C448.126 111.839 452.889 108.188 458.27 105.491L475.311 96.9487L474.3 94.9306L457.259 103.473C451.877 106.17 446.102 107.803 442.961 106.852C439.819 105.902 441.67 106.237 438.603 105.249C435.536 104.261 424.507 104.74 419.947 107.025Z" fill="#F4F4F4"/>
<path d="M490.971 157.272C485.726 146.808 487.346 135.381 494.59 131.75C501.835 128.118 511.96 133.657 517.205 144.121C522.451 154.586 520.83 166.012 513.586 169.644C506.341 173.275 496.216 167.736 490.971 157.272Z" fill="#F4F4F4"/>
<path d="M514.376 138.478L517.936 145.579L491.701 158.729L488.142 151.629C485.857 147.07 485.378 136.04 486.366 132.973C487.354 129.906 487.019 131.757 487.969 128.616C488.92 125.474 487.287 119.699 484.59 114.318L476.047 97.2765L478.065 96.2649L486.608 113.306C489.305 118.687 492.956 123.451 496.041 124.569C499.127 125.688 497.444 124.848 500.492 125.892C503.54 126.936 512.091 133.919 514.376 138.478Z" fill="#F4F4F4"/>
<path d="M435.392 46.5323C440.637 56.9965 450.762 62.5355 458.006 58.9041C465.251 55.2727 466.871 43.846 461.626 33.3819C456.381 22.9177 446.256 17.3787 439.011 21.0101C431.767 24.6415 430.146 36.0682 435.392 46.5323Z" fill="#F4F4F4"/>
<path d="M464.455 39.0248L460.895 31.9244L434.661 45.0749L438.22 52.1753C440.506 56.7346 449.057 63.7178 452.105 64.7616C455.153 65.8054 453.47 64.9658 456.556 66.0844C459.641 67.203 463.292 71.9664 465.989 77.3478L474.531 94.3889L476.549 93.3773L468.007 76.3363C465.31 70.9549 463.677 65.1798 464.628 62.0381C465.578 58.8964 465.243 60.7475 466.231 57.6806C467.219 54.6136 466.74 43.5841 464.455 39.0248Z" fill="#F4F4F4"/>
<path d="M442.337 78.7259L513.417 102.638L510.298 111.909L439.218 87.9972L442.337 78.7259Z" fill="#F4F4F4"/>
<path d="M492.909 61.3367L468.997 132.417L459.726 129.298L483.638 58.2178L492.909 61.3367Z" fill="#F4F4F4"/>
<path d="M463.366 58.2786L496.972 125.322L488.227 129.706L454.621 62.662L463.366 58.2786Z" fill="#F4F4F4"/>
<path d="M514.173 82.6406L443.269 118.181L438.886 109.436L509.789 73.8957L514.173 82.6406Z" fill="#F4F4F4"/>
<path d="M294.04 409.935C299.288 433.812 290.143 456.114 273.612 459.748C257.082 463.381 239.427 446.971 234.179 423.094C228.93 399.217 238.076 376.915 254.606 373.282C271.136 369.648 288.791 386.059 294.04 409.935Z" fill="#F4F4F4"/>
<path d="M237.009 435.97L233.448 419.768L293.309 406.61L296.87 422.812C299.157 433.215 294.465 455.79 290.891 461.492C287.317 467.194 288.945 463.618 285.408 469.491C281.872 475.363 282.213 487.893 284.912 500.172L293.459 539.056L288.854 540.068L280.307 501.184C277.608 488.905 272.663 477.388 266.99 473.539C261.317 469.691 264.294 472.255 258.658 468.577C253.023 464.899 239.296 446.373 237.009 435.97Z" fill="#F4F4F4"/>
<path d="M349.597 662.682C344.348 638.805 326.693 622.394 310.163 626.028C293.633 629.662 284.487 651.963 289.736 675.84C294.984 699.717 312.639 716.127 329.17 712.494C345.7 708.86 354.845 686.559 349.597 662.682Z" fill="#F4F4F4"/>
<path d="M286.906 662.964L290.467 679.166L350.328 666.007L346.766 649.806C344.48 639.403 330.753 620.876 325.117 617.199C319.482 613.521 322.459 616.084 316.786 612.236C311.113 608.388 306.168 596.871 303.468 584.591L294.921 545.707L290.316 546.719L298.864 585.604C301.563 597.883 301.903 610.412 298.367 616.285C294.831 622.157 296.458 618.582 292.885 624.284C289.311 629.986 284.619 652.561 286.906 662.964Z" fill="#F4F4F4"/>
<path d="M424.84 545.04C400.963 550.288 378.662 541.143 375.028 524.612C371.394 508.082 387.805 490.427 411.682 485.179C435.559 479.93 457.86 489.076 461.494 505.606C465.127 522.136 448.717 539.791 424.84 545.04Z" fill="#F4F4F4"/>
<path d="M398.806 488.009L415.007 484.448L428.166 544.309L411.964 547.87C401.561 550.157 378.986 545.465 373.284 541.891C367.582 538.317 371.158 539.945 365.285 536.408C359.412 532.872 346.883 533.213 334.604 535.912L295.719 544.459L294.707 539.854L333.591 531.307C345.871 528.608 357.388 523.663 361.236 517.99C365.084 512.317 362.521 515.294 366.199 509.658C369.876 504.023 388.403 490.296 398.806 488.009Z" fill="#F4F4F4"/>
<path d="M172.094 600.597C195.971 595.348 212.381 577.693 208.748 561.163C205.114 544.633 182.812 535.487 158.936 540.736C135.059 545.984 118.648 563.639 122.282 580.169C125.915 596.7 148.217 605.845 172.094 600.597Z" fill="#F4F4F4"/>
<path d="M171.812 537.905L155.61 541.467L168.768 601.328L184.97 597.766C195.373 595.48 213.899 581.753 217.577 576.117C221.255 570.482 218.691 573.459 222.539 567.786C226.388 562.113 237.905 557.168 250.184 554.468L289.068 545.921L288.056 541.316L249.172 549.864C236.893 552.563 224.363 552.903 218.491 549.367C212.618 545.831 216.194 547.458 210.492 543.885C204.79 540.311 182.215 535.619 171.812 537.905Z" fill="#F4F4F4"/>
<path d="M387.022 450.007C373.927 470.651 351.726 480.038 337.434 470.972C323.141 461.907 322.17 437.822 335.265 417.178C348.359 396.534 370.56 387.147 384.853 396.212C399.145 405.278 400.116 429.362 387.022 450.007Z" fill="#F4F4F4"/>
<path d="M328.203 428.311L337.089 414.303L388.845 447.131L379.96 461.139C374.255 470.134 355.022 482.852 348.469 484.382C341.916 485.911 345.59 484.52 338.943 486.197C332.296 487.874 323.712 497.007 316.978 507.624L295.653 541.244L291.672 538.719L312.996 505.099C319.73 494.482 324.333 482.824 323.018 476.096C321.702 469.368 322.009 473.285 320.6 466.705C319.191 460.125 322.498 437.306 328.203 428.311Z" fill="#F4F4F4"/>
<path d="M248.248 668.431C261.342 647.786 260.371 623.702 246.079 614.637C231.787 605.571 209.585 614.958 196.491 635.602C183.397 656.247 184.368 680.331 198.66 689.396C212.952 698.462 235.153 689.075 248.248 668.431Z" fill="#F4F4F4"/>
<path d="M203.552 624.469L194.667 638.478L246.424 671.306L255.309 657.298C261.014 648.303 264.322 625.484 262.913 618.904C261.503 612.324 261.811 616.24 260.495 609.513C259.179 602.785 263.782 591.127 270.516 580.51L291.841 546.89L287.859 544.365L266.535 577.985C259.801 588.601 251.217 597.734 244.57 599.412C237.923 601.089 241.597 599.697 235.044 601.227C228.49 602.757 209.258 615.475 203.552 624.469Z" fill="#F4F4F4"/>
<path d="M384.748 638.054C364.104 624.96 354.717 602.759 363.783 588.466C372.848 574.174 396.932 573.203 417.577 586.297C438.221 599.392 447.608 621.593 438.542 635.885C429.477 650.177 405.393 651.149 384.748 638.054Z" fill="#F4F4F4"/>
<path d="M406.444 579.236L420.452 588.121L387.624 639.878L373.615 630.993C364.621 625.288 351.903 606.055 350.373 599.501C348.843 592.948 350.235 596.622 348.558 589.975C346.881 583.329 337.748 574.744 327.131 568.01L293.511 546.686L296.036 542.704L329.656 564.029C340.273 570.763 351.931 575.366 358.659 574.05C365.387 572.735 361.47 573.042 368.05 571.632C374.63 570.223 397.449 573.531 406.444 579.236Z" fill="#F4F4F4"/>
<path d="M166.151 499.553C186.795 512.647 210.88 511.676 219.945 497.384C229.01 483.092 219.624 460.89 198.979 447.796C178.335 434.702 154.251 435.673 145.185 449.965C136.12 464.257 145.507 486.458 166.151 499.553Z" fill="#F4F4F4"/>
<path d="M210.112 454.857L196.104 445.972L163.276 497.729L177.284 506.614C186.279 512.32 209.097 515.627 215.678 514.218C222.258 512.809 218.341 513.116 225.069 511.8C231.797 510.484 243.455 515.087 254.072 521.821L287.691 543.146L290.217 539.165L256.597 517.84C245.98 511.106 236.847 502.522 235.17 495.875C233.493 489.228 234.884 492.902 233.355 486.349C231.825 479.796 219.107 460.563 210.112 454.857Z" fill="#F4F4F4"/>
<path d="M213.206 549.724L366.184 516.098L370.57 536.051L217.592 569.678L213.206 549.724Z" fill="#F4F4F4"/>
<path d="M285.051 464.206L318.678 617.184L298.724 621.57L265.098 468.592L285.051 464.206Z" fill="#F4F4F4"/>
<path d="M228.868 490.501L361.134 574.398L350.191 591.65L217.925 507.753L228.868 490.501Z" fill="#F4F4F4"/>
<path d="M346.032 479.482L257.305 619.362L240.053 608.419L328.78 468.539L346.032 479.482Z" fill="#F4F4F4"/>
<path d="M744.348 655.833C740.024 682.726 721.425 702.1 702.807 699.106C684.189 696.113 672.601 671.884 676.926 644.991C681.25 618.098 699.849 598.724 718.467 601.718C737.085 604.712 748.673 628.94 744.348 655.833Z" fill="#F4F4F4"/>
<path d="M674.594 659.494L677.528 641.246L744.951 652.087L742.016 670.336C740.132 682.053 726.038 703.532 720.002 707.98C713.966 712.428 717.115 709.388 711.048 714.028C704.982 718.669 700.211 731.794 697.987 745.624L690.945 789.42L685.758 788.587L692.801 744.79C695.025 730.96 694.609 717.001 690.303 710.693C685.997 704.384 688.034 708.259 683.697 702.142C679.36 696.026 672.709 671.211 674.594 659.494Z" fill="#F4F4F4"/>
<path d="M698.573 940.507C702.897 913.614 691.31 889.386 672.691 886.392C654.073 883.398 635.474 902.772 631.15 929.666C626.826 956.559 638.413 980.787 657.031 983.781C675.65 986.774 694.248 967.4 698.573 940.507Z" fill="#F4F4F4"/>
<path d="M633.482 915.163L630.548 933.411L697.971 944.253L700.905 926.004C702.789 914.287 696.138 889.473 691.801 883.356C687.464 877.24 689.502 881.114 685.195 874.806C680.889 868.497 680.474 854.538 682.698 840.708L689.74 796.912L684.554 796.078L677.511 839.874C675.287 853.704 670.517 866.83 664.45 871.47C658.383 876.111 661.532 873.07 655.497 877.518C649.461 881.967 635.366 903.446 633.482 915.163Z" fill="#F4F4F4"/>
<path d="M824.666 849.348C797.772 845.024 778.398 826.425 781.392 807.807C784.386 789.189 808.614 777.601 835.507 781.926C862.4 786.25 881.774 804.849 878.781 823.467C875.787 842.085 851.559 853.673 824.666 849.348Z" fill="#F4F4F4"/>
<path d="M821.004 779.594L839.253 782.528L828.411 849.951L810.163 847.016C798.446 845.132 776.967 831.038 772.518 825.002C768.07 818.966 771.111 822.115 766.47 816.048C761.83 809.982 748.704 805.211 734.874 802.987L691.078 795.945L691.912 790.758L735.708 797.801C749.538 800.025 763.497 799.609 769.806 795.303C776.114 790.997 772.24 793.034 778.356 788.697C784.473 784.36 809.287 777.709 821.004 779.594Z" fill="#F4F4F4"/>
<path d="M539.991 803.573C566.884 807.897 591.113 796.31 594.106 777.691C597.1 759.073 577.726 740.474 550.833 736.15C523.94 731.826 499.712 743.413 496.718 762.031C493.724 780.65 513.098 799.248 539.991 803.573Z" fill="#F4F4F4"/>
<path d="M565.336 738.482L547.087 735.548L536.246 802.971L554.494 805.905C566.211 807.789 591.026 801.138 597.142 796.801C603.259 792.464 599.384 794.502 605.693 790.195C612.001 785.889 625.96 785.474 639.79 787.698L683.587 794.74L684.42 789.554L640.624 782.511C626.794 780.287 613.669 775.517 609.028 769.45C604.388 763.383 607.428 766.532 602.98 760.497C598.532 754.461 577.053 740.366 565.336 738.482Z" fill="#F4F4F4"/>
<path d="M824.332 735.387C802.318 751.429 775.469 752.079 764.363 736.839C753.258 721.598 762.1 696.239 784.114 680.198C806.127 664.156 832.976 663.506 844.082 678.746C855.188 693.987 846.345 719.346 824.332 735.387Z" fill="#F4F4F4"/>
<path d="M772.242 688.849L787.18 677.963L827.398 733.153L812.46 744.038C802.869 751.028 777.735 756.344 770.317 755.25C762.899 754.155 767.276 754.215 759.701 753.236C752.127 752.256 739.495 758.211 728.174 766.461L692.324 792.585L689.23 788.34L725.08 762.215C736.401 753.966 745.939 743.765 747.327 736.254C748.714 728.743 747.431 732.928 748.661 725.532C749.891 718.136 762.651 695.838 772.242 688.849Z" fill="#F4F4F4"/>
<path d="M591.18 905.02C613.194 888.979 622.036 863.619 610.931 848.379C599.825 833.139 572.976 833.789 550.962 849.831C528.949 865.872 520.106 891.231 531.212 906.472C542.318 921.712 569.167 921.062 591.18 905.02Z" fill="#F4F4F4"/>
<path d="M562.834 841.18L547.896 852.065L588.114 907.255L603.051 896.369C612.643 889.38 625.402 867.082 626.633 859.686C627.863 852.29 626.58 856.475 627.967 848.964C629.355 841.453 638.893 831.252 650.214 823.003L686.064 796.878L682.97 792.633L647.12 818.757C635.799 827.007 623.167 832.962 615.592 831.982C608.018 831.003 612.395 831.063 604.977 829.968C597.559 828.874 572.425 834.19 562.834 841.18Z" fill="#F4F4F4"/>
<path d="M745.076 929.357C729.034 907.343 728.385 880.495 743.625 869.389C758.865 858.283 784.224 867.125 800.266 889.139C816.308 911.153 816.957 938.001 801.717 949.107C786.477 960.213 761.118 951.371 745.076 929.357Z" fill="#F4F4F4"/>
<path d="M791.615 877.268L802.5 892.205L747.311 932.423L736.425 917.486C729.436 907.894 724.12 882.76 725.214 875.342C726.309 867.925 726.248 872.302 727.228 864.727C728.208 857.152 722.253 844.52 714.003 833.199L687.878 797.349L692.124 794.256L718.248 830.105C726.498 841.426 736.699 850.965 744.21 852.352C751.72 853.74 747.535 852.456 754.932 853.687C762.328 854.917 784.626 867.676 791.615 877.268Z" fill="#F4F4F4"/>
<path d="M575.152 696.417C591.194 718.431 616.553 727.273 631.793 716.168C647.034 705.062 646.384 678.213 630.342 656.199C614.3 634.186 588.941 625.343 573.701 636.449C558.461 647.555 559.111 674.404 575.152 696.417Z" fill="#F4F4F4"/>
<path d="M638.993 668.071L628.108 653.133L572.918 693.351L583.803 708.289C590.793 717.88 613.09 730.639 620.487 731.87C627.883 733.1 623.698 731.817 631.209 733.204C638.72 734.592 648.92 744.13 657.17 755.451L683.294 791.301L687.54 788.207L661.415 752.357C653.166 741.036 647.21 728.404 648.19 720.83C649.17 713.255 649.11 717.632 650.204 710.214C651.299 702.796 645.982 677.662 638.993 668.071Z" fill="#F4F4F4"/>
<path d="M603.405 767.659L775.708 795.365L772.094 817.839L599.791 790.133L603.405 767.659Z" fill="#F4F4F4"/>
<path d="M712.839 708.405L685.133 880.708L662.659 877.094L690.365 704.791L712.839 708.405Z" fill="#F4F4F4"/>
<path d="M643.856 712.683L746.633 853.725L728.236 867.13L625.459 726.088L643.856 712.683Z" fill="#F4F4F4"/>
<path d="M769.795 749.175L620.633 857.868L607.228 839.471L756.389 730.778L769.795 749.175Z" fill="#F4F4F4"/>
<path d="M580.021 491.703C578.405 501.753 571.455 508.993 564.497 507.874C557.539 506.756 553.209 497.701 554.825 487.651C556.441 477.601 563.391 470.361 570.349 471.48C577.307 472.598 581.637 481.653 580.021 491.703Z" fill="#F4F4F4"/>
<path d="M553.953 493.071L555.05 486.251L580.246 490.303L579.15 497.123C578.446 501.501 573.178 509.528 570.923 511.191C568.667 512.853 569.844 511.717 567.577 513.451C565.31 515.185 563.527 520.09 562.696 525.259L560.064 541.626L558.126 541.314L560.757 524.947C561.589 519.779 561.433 514.562 559.824 512.204C558.215 509.847 558.976 511.295 557.355 509.009C555.735 506.723 553.249 497.45 553.953 493.071Z" fill="#F4F4F4"/>
<path d="M562.915 598.088C564.531 588.038 560.2 578.984 553.242 577.865C546.285 576.746 539.334 583.986 537.718 594.036C536.102 604.087 540.432 613.141 547.39 614.26C554.348 615.379 561.298 608.138 562.915 598.088Z" fill="#F4F4F4"/>
<path d="M538.59 588.617L537.493 595.436L562.689 599.488L563.786 592.668C564.49 588.289 562.005 579.016 560.384 576.73C558.763 574.445 559.524 575.892 557.915 573.535C556.306 571.177 556.151 565.961 556.982 560.792L559.614 544.425L557.675 544.114L555.044 560.481C554.213 565.649 552.43 570.554 550.163 572.288C547.895 574.023 549.072 572.886 546.817 574.549C544.561 576.211 539.294 584.238 538.59 588.617Z" fill="#F4F4F4"/>
<path d="M610.036 564.021C599.986 562.405 592.746 555.455 593.865 548.497C594.984 541.539 604.038 537.209 614.088 538.825C624.138 540.441 631.379 547.391 630.26 554.349C629.141 561.307 620.087 565.637 610.036 564.021Z" fill="#F4F4F4"/>
<path d="M608.668 537.953L615.488 539.05L611.436 564.246L604.617 563.15C600.238 562.446 592.211 557.178 590.549 554.923C588.886 552.667 590.023 553.844 588.288 551.577C586.554 549.31 581.649 547.527 576.481 546.696L560.114 544.064L560.425 542.126L576.792 544.757C581.961 545.589 587.177 545.433 589.535 543.824C591.892 542.215 590.445 542.976 592.73 541.355C595.016 539.735 604.289 537.249 608.668 537.953Z" fill="#F4F4F4"/>
<path d="M503.651 546.915C513.701 548.531 522.756 544.2 523.874 537.242C524.993 530.285 517.753 523.334 507.703 521.718C497.653 520.102 488.598 524.432 487.48 531.39C486.361 538.348 493.601 545.298 503.651 546.915Z" fill="#F4F4F4"/>
<path d="M513.123 522.59L506.303 521.493L502.251 546.689L509.071 547.786C513.45 548.49 522.723 546.005 525.009 544.384C527.295 542.763 525.847 543.524 528.204 541.915C530.562 540.306 535.779 540.151 540.947 540.982L557.314 543.614L557.626 541.675L541.259 539.044C536.09 538.213 531.185 536.43 529.451 534.163C527.717 531.895 528.853 533.072 527.191 530.817C525.528 528.561 517.501 523.294 513.123 522.59Z" fill="#F4F4F4"/>
<path d="M609.912 521.433C601.685 527.428 591.651 527.671 587.501 521.975C583.351 516.28 586.655 506.803 594.882 500.808C603.109 494.813 613.142 494.57 617.293 500.266C621.443 505.961 618.138 515.438 609.912 521.433Z" fill="#F4F4F4"/>
<path d="M590.445 504.041L596.028 499.973L611.057 520.598L605.475 524.666C601.891 527.278 592.498 529.265 589.726 528.856C586.954 528.447 588.59 528.469 585.759 528.103C582.928 527.737 578.207 529.962 573.977 533.045L560.579 542.808L559.423 541.222L572.82 531.459C577.051 528.376 580.616 524.564 581.134 521.757C581.653 518.95 581.173 520.514 581.633 517.75C582.093 514.986 586.861 506.653 590.445 504.041Z" fill="#F4F4F4"/>
<path d="M522.781 584.826C531.008 578.831 534.312 569.354 530.162 563.659C526.011 557.964 515.978 558.206 507.751 564.201C499.524 570.196 496.22 579.673 500.37 585.369C504.521 591.064 514.554 590.821 522.781 584.826Z" fill="#F4F4F4"/>
<path d="M512.188 560.969L506.605 565.036L521.635 585.661L527.217 581.593C530.802 578.981 535.57 570.649 536.03 567.885C536.49 565.12 536.01 566.684 536.529 563.878C537.047 561.071 540.612 557.259 544.842 554.176L558.24 544.413L557.084 542.826L543.686 552.589C539.456 555.672 534.735 557.898 531.904 557.531C529.073 557.165 530.709 557.188 527.937 556.779C525.165 556.37 515.772 558.357 512.188 560.969Z" fill="#F4F4F4"/>
<path d="M580.293 593.921C574.298 585.694 574.055 575.661 579.751 571.511C585.446 567.36 594.923 570.665 600.918 578.891C606.913 587.118 607.156 597.152 601.46 601.302C595.765 605.452 586.288 602.148 580.293 593.921Z" fill="#F4F4F4"/>
<path d="M597.685 574.455L601.753 580.037L581.128 595.067L577.06 589.485C574.448 585.9 572.462 576.507 572.871 573.735C573.28 570.963 573.257 572.599 573.623 569.768C573.989 566.937 571.764 562.217 568.681 557.986L558.918 544.589L560.504 543.433L570.267 556.83C573.35 561.061 577.162 564.625 579.969 565.144C582.776 565.662 581.212 565.183 583.976 565.642C586.74 566.102 595.073 570.871 597.685 574.455Z" fill="#F4F4F4"/>
<path d="M516.791 506.87C522.786 515.096 532.263 518.401 537.958 514.25C543.654 510.1 543.411 500.066 537.416 491.84C531.421 483.613 521.944 480.309 516.249 484.459C510.553 488.609 510.796 498.643 516.791 506.87Z" fill="#F4F4F4"/>
<path d="M540.649 496.276L536.581 490.694L515.956 505.724L520.024 511.306C522.636 514.89 530.969 519.659 533.733 520.118C536.497 520.578 534.933 520.099 537.74 520.617C540.547 521.136 544.359 524.7 547.442 528.931L557.205 542.328L558.791 541.172L549.028 527.775C545.945 523.544 543.72 518.823 544.086 515.993C544.452 513.162 544.43 514.798 544.839 512.026C545.248 509.253 543.261 499.861 540.649 496.276Z" fill="#F4F4F4"/>
<path d="M527.349 533.493L591.74 543.847L590.39 552.246L525.999 541.892L527.349 533.493Z" fill="#F4F4F4"/>
<path d="M568.246 511.349L557.892 575.74L549.493 574.39L559.847 509.999L568.246 511.349Z" fill="#F4F4F4"/>
<path d="M542.466 512.948L580.875 565.657L574 570.666L535.591 517.958L542.466 512.948Z" fill="#F4F4F4"/>
<path d="M589.531 526.585L533.788 567.205L528.778 560.33L584.521 519.71L589.531 526.585Z" fill="#F4F4F4"/>
<path d="M401.881 762.289C399.521 776.963 389.373 787.535 379.214 785.901C369.055 784.268 362.732 771.048 365.092 756.373C367.451 741.699 377.6 731.128 387.759 732.761C397.918 734.395 404.241 747.615 401.881 762.289Z" fill="#F4F4F4"/>
<path d="M363.819 764.287L365.42 754.33L402.21 760.245L400.609 770.202C399.58 776.596 391.89 788.316 388.596 790.743C385.303 793.17 387.021 791.511 383.711 794.044C380.401 796.576 377.797 803.737 376.584 811.284L372.741 835.181L369.911 834.726L373.754 810.829C374.967 803.282 374.741 795.666 372.391 792.223C370.041 788.781 371.153 790.895 368.787 787.558C366.42 784.22 362.791 770.68 363.819 764.287Z" fill="#F4F4F4"/>
<path d="M376.904 917.622C379.263 902.947 372.94 889.727 362.781 888.094C352.622 886.46 342.474 897.032 340.114 911.706C337.755 926.38 344.077 939.6 354.236 941.234C364.396 942.868 374.544 932.296 376.904 917.622Z" fill="#F4F4F4"/>
<path d="M341.387 903.793L339.786 913.75L376.575 919.666L378.176 909.708C379.204 903.315 375.575 889.775 373.209 886.437C370.842 883.1 371.954 885.214 369.604 881.772C367.255 878.33 367.028 870.713 368.241 863.166L372.084 839.269L369.254 838.814L365.411 862.711C364.198 870.258 361.595 877.42 358.284 879.952C354.974 882.484 356.692 880.825 353.399 883.252C350.106 885.679 342.415 897.399 341.387 903.793Z" fill="#F4F4F4"/>
<path d="M445.706 867.881C431.032 865.521 420.46 855.373 422.094 845.214C423.727 835.055 436.948 828.732 451.622 831.092C466.296 833.451 476.868 843.6 475.234 853.759C473.6 863.918 460.38 870.241 445.706 867.881Z" fill="#F4F4F4"/>
<path d="M443.708 829.819L453.666 831.42L447.75 868.21L437.793 866.608C431.399 865.58 419.679 857.89 417.252 854.596C414.825 851.303 416.484 853.021 413.952 849.711C411.42 846.401 404.258 843.797 396.711 842.584L372.814 838.741L373.269 835.911L397.166 839.754C404.713 840.967 412.33 840.741 415.772 838.391C419.214 836.041 417.1 837.153 420.437 834.787C423.775 832.42 437.315 828.791 443.708 829.819Z" fill="#F4F4F4"/>
<path d="M290.373 842.903C305.048 845.263 318.268 838.94 319.901 828.781C321.535 818.622 310.963 808.474 296.289 806.114C281.615 803.755 268.395 810.077 266.761 820.236C265.128 830.395 275.699 840.544 290.373 842.903Z" fill="#F4F4F4"/>
<path d="M304.203 807.387L294.245 805.786L288.33 842.575L298.287 844.176C304.68 845.204 318.22 841.575 321.558 839.209C324.895 836.842 322.781 837.954 326.223 835.604C329.666 833.254 337.282 833.028 344.829 834.241L368.726 838.084L369.181 835.254L345.284 831.411C337.737 830.198 330.576 827.595 328.044 824.284C325.511 820.974 327.171 822.692 324.743 819.399C322.316 816.106 310.596 808.415 304.203 807.387Z" fill="#F4F4F4"/>
<path d="M445.524 805.698C433.512 814.451 418.862 814.806 412.802 806.49C406.742 798.174 411.567 784.337 423.579 775.584C435.591 766.831 450.241 766.476 456.301 774.792C462.361 783.108 457.536 796.945 445.524 805.698Z" fill="#F4F4F4"/>
<path d="M417.101 780.304L425.252 774.365L447.197 804.479L439.046 810.418C433.813 814.232 420.098 817.133 416.051 816.536C412.003 815.939 414.392 815.972 410.258 815.437C406.125 814.902 399.233 818.152 393.055 822.653L373.494 836.908L371.806 834.592L391.367 820.337C397.544 815.835 402.749 810.269 403.506 806.171C404.263 802.073 403.563 804.356 404.234 800.32C404.906 796.285 411.868 784.118 417.101 780.304Z" fill="#F4F4F4"/>
<path d="M318.305 898.258C330.316 889.505 335.141 875.668 329.081 867.352C323.022 859.036 308.372 859.391 296.36 868.144C284.348 876.897 279.523 890.734 285.583 899.05C291.643 907.366 306.293 907.012 318.305 898.258Z" fill="#F4F4F4"/>
<path d="M302.837 863.424L294.687 869.363L316.632 899.477L324.782 893.538C330.016 889.724 336.978 877.557 337.649 873.522C338.321 869.486 337.62 871.769 338.378 867.671C339.135 863.573 344.339 858.007 350.517 853.505L370.078 839.251L368.39 836.934L348.828 851.189C342.651 855.69 335.759 858.94 331.625 858.405C327.492 857.871 329.88 857.903 325.833 857.306C321.785 856.709 308.071 859.61 302.837 863.424Z" fill="#F4F4F4"/>
<path d="M402.278 911.538C393.525 899.526 393.17 884.876 401.486 878.816C409.802 872.756 423.639 877.581 432.392 889.593C441.146 901.605 441.5 916.254 433.184 922.314C424.868 928.374 411.031 923.549 402.278 911.538Z" fill="#F4F4F4"/>
<path d="M427.672 883.115L433.612 891.266L403.497 913.211L397.558 905.06C393.744 899.826 390.843 886.112 391.44 882.065C392.038 878.017 392.005 880.405 392.539 876.272C393.074 872.139 389.824 865.246 385.323 859.069L371.068 839.508L373.385 837.819L387.639 857.381C392.141 863.558 397.707 868.763 401.805 869.52C405.904 870.277 403.62 869.577 407.656 870.248C411.692 870.919 423.858 877.882 427.672 883.115Z" fill="#F4F4F4"/>
<path d="M309.559 784.434C318.312 796.446 332.149 801.271 340.465 795.211C348.781 789.151 348.427 774.501 339.673 762.489C330.92 750.477 317.083 745.652 308.767 751.712C300.451 757.772 300.806 772.422 309.559 784.434Z" fill="#F4F4F4"/>
<path d="M344.394 768.967L338.454 760.816L308.34 782.761L314.279 790.912C318.093 796.145 330.26 803.107 334.296 803.779C338.332 804.45 336.048 803.75 340.146 804.507C344.245 805.264 349.811 810.468 354.312 816.646L368.567 836.207L370.883 834.519L356.629 814.958C352.127 808.78 348.878 801.888 349.412 797.755C349.947 793.621 349.914 796.01 350.511 791.962C351.108 787.915 348.208 774.2 344.394 768.967Z" fill="#F4F4F4"/>
<path d="M324.975 823.307L418.992 838.425L417.02 850.688L323.003 835.57L324.975 823.307Z" fill="#F4F4F4"/>
<path d="M384.688 790.975L369.57 884.992L357.307 883.02L372.425 789.003L384.688 790.975Z" fill="#F4F4F4"/>
<path d="M347.047 793.309L403.128 870.269L393.089 877.584L337.009 800.624L347.047 793.309Z" fill="#F4F4F4"/>
<path d="M415.766 813.221L334.376 872.53L327.061 862.492L408.451 803.183L415.766 813.221Z" fill="#F4F4F4"/>
<path d="M272.485 998.865C268.515 1023.55 251.444 1041.33 234.355 1038.58C217.266 1035.84 206.631 1013.6 210.6 988.914C214.569 964.23 231.64 946.447 248.729 949.195C265.818 951.943 276.454 974.181 272.485 998.865Z" fill="#F4F4F4"/>
<path d="M208.459 1002.22L211.153 985.476L273.037 995.427L270.344 1012.18C268.615 1022.93 255.678 1042.65 250.138 1046.73C244.598 1050.81 247.488 1048.02 241.92 1052.28C236.352 1056.54 231.973 1068.59 229.931 1081.28L223.468 1121.48L218.707 1120.71L225.171 1080.52C227.212 1067.82 226.831 1055.01 222.879 1049.22C218.926 1043.43 220.796 1046.98 216.815 1041.37C212.835 1035.76 206.73 1012.98 208.459 1002.22Z" fill="#F4F4F4"/>
<path d="M230.469 1260.16C234.438 1235.47 223.803 1213.23 206.714 1210.49C189.625 1207.74 172.554 1225.52 168.584 1250.2C164.615 1274.89 175.251 1297.13 192.34 1299.87C209.429 1302.62 226.5 1284.84 230.469 1260.16Z" fill="#F4F4F4"/>
<path d="M170.725 1236.89L168.032 1253.64L229.916 1263.59L232.61 1246.84C234.339 1236.09 228.234 1213.31 224.254 1207.7C220.273 1202.08 222.143 1205.64 218.19 1199.85C214.238 1194.06 213.857 1181.25 215.898 1168.55L222.362 1128.36L217.601 1127.59L211.138 1167.79C209.096 1180.48 204.717 1192.53 199.149 1196.79C193.581 1201.05 196.471 1198.26 190.931 1202.34C185.391 1206.42 172.454 1226.14 170.725 1236.89Z" fill="#F4F4F4"/>
<path d="M346.204 1176.48C321.52 1172.52 303.737 1155.44 306.485 1138.36C309.233 1121.27 331.471 1110.63 356.155 1114.6C380.839 1118.57 398.622 1135.64 395.874 1152.73C393.126 1169.82 370.888 1180.45 346.204 1176.48Z" fill="#F4F4F4"/>
<path d="M342.844 1112.46L359.593 1115.15L349.642 1177.04L332.893 1174.34C322.138 1172.61 302.424 1159.68 298.341 1154.14C294.258 1148.6 297.048 1151.49 292.789 1145.92C288.53 1140.35 276.483 1135.97 263.788 1133.93L223.59 1127.47L224.355 1122.71L264.554 1129.17C277.248 1131.21 290.061 1130.83 295.851 1126.88C301.641 1122.93 298.085 1124.8 303.699 1120.82C309.313 1116.83 332.089 1110.73 342.844 1112.46Z" fill="#F4F4F4"/>
<path d="M84.9136 1134.47C109.598 1138.44 131.836 1127.8 134.584 1110.71C137.331 1093.62 119.549 1076.55 94.8646 1072.58C70.1806 1068.62 47.9426 1079.25 45.1946 1096.34C42.4467 1113.43 60.2295 1130.5 84.9136 1134.47Z" fill="#F4F4F4"/>
<path d="M108.176 1074.72L91.4266 1072.03L81.4756 1133.92L98.225 1136.61C108.98 1138.34 131.756 1132.23 137.37 1128.25C142.984 1124.27 139.428 1126.14 145.218 1122.19C151.008 1118.24 163.821 1117.86 176.515 1119.9L216.714 1126.36L217.479 1121.6L177.281 1115.14C164.586 1113.1 152.539 1108.72 148.28 1103.15C144.021 1097.58 146.811 1100.47 142.728 1094.93C138.645 1089.39 118.931 1076.45 108.176 1074.72Z" fill="#F4F4F4"/>
<path d="M345.898 1071.88C325.692 1086.61 301.049 1087.2 290.855 1073.22C280.662 1059.23 288.778 1035.95 308.984 1021.23C329.189 1006.5 353.832 1005.91 364.026 1019.9C374.219 1033.88 366.103 1057.16 345.898 1071.88Z" fill="#F4F4F4"/>
<path d="M298.087 1029.17L311.798 1019.18L348.712 1069.83L335.002 1079.82C326.198 1086.24 303.128 1091.12 296.32 1090.12C289.512 1089.11 293.529 1089.17 286.576 1088.27C279.624 1087.37 268.029 1092.83 257.638 1100.41L224.733 1124.38L221.894 1120.49L254.799 1096.51C265.19 1088.94 273.945 1079.57 275.218 1072.68C276.492 1065.79 275.314 1069.63 276.443 1062.84C277.572 1056.05 289.284 1035.58 298.087 1029.17Z" fill="#F4F4F4"/>
<path d="M131.898 1227.58C152.103 1212.86 160.219 1189.58 150.026 1175.59C139.832 1161.61 115.189 1162.2 94.9835 1176.93C74.7781 1191.65 66.6619 1214.93 76.8554 1228.92C87.049 1242.9 111.692 1242.31 131.898 1227.58Z" fill="#F4F4F4"/>
<path d="M105.88 1168.99L92.1692 1178.98L129.084 1229.63L142.794 1219.64C151.597 1213.23 163.309 1192.76 164.438 1185.97C165.567 1179.18 164.389 1183.03 165.663 1176.13C166.937 1169.24 175.691 1159.87 186.082 1152.3L218.987 1128.32L216.148 1124.43L183.243 1148.41C172.852 1155.98 161.257 1161.44 154.305 1160.55C147.352 1159.65 151.37 1159.7 144.561 1158.7C137.753 1157.69 114.683 1162.57 105.88 1168.99Z" fill="#F4F4F4"/>
<path d="M273.153 1249.92C258.428 1229.72 257.832 1205.07 271.82 1194.88C285.809 1184.69 309.085 1192.8 323.809 1213.01C338.533 1233.21 339.129 1257.86 325.141 1268.05C311.153 1278.24 287.877 1270.13 273.153 1249.92Z" fill="#F4F4F4"/>
<path d="M315.869 1202.11L325.86 1215.82L275.203 1252.74L265.212 1239.02C258.797 1230.22 253.917 1207.15 254.922 1200.34C255.926 1193.53 255.871 1197.55 256.771 1190.6C257.67 1183.65 252.204 1172.05 244.632 1161.66L220.653 1128.76L224.55 1125.92L248.528 1158.82C256.1 1169.21 265.463 1177.97 272.357 1179.24C279.251 1180.52 275.41 1179.34 282.198 1180.47C288.987 1181.6 309.453 1193.31 315.869 1202.11Z" fill="#F4F4F4"/>
<path d="M117.186 1036.12C131.911 1056.32 155.187 1064.44 169.175 1054.24C183.163 1044.05 182.567 1019.41 167.843 999.201C153.119 978.996 129.843 970.879 115.854 981.073C101.866 991.267 102.462 1015.91 117.186 1036.12Z" fill="#F4F4F4"/>
<path d="M175.783 1010.1L165.792 996.387L115.136 1033.3L125.127 1047.01C131.542 1055.82 152.008 1067.53 158.797 1068.66C165.586 1069.78 161.744 1068.61 168.638 1069.88C175.532 1071.15 184.895 1079.91 192.467 1090.3L216.446 1123.21L220.342 1120.37L196.364 1087.46C188.792 1077.07 183.326 1065.48 184.225 1058.52C185.124 1051.57 185.069 1055.59 186.073 1048.78C187.078 1041.97 182.198 1018.9 175.783 1010.1Z" fill="#F4F4F4"/>
<path d="M143.118 1101.51L301.268 1126.94L297.951 1147.56L139.801 1122.13L143.118 1101.51Z" fill="#F4F4F4"/>
<path d="M243.564 1047.12L218.133 1205.27L197.505 1201.95L222.936 1043.8L243.564 1047.12Z" fill="#F4F4F4"/>
<path d="M180.247 1051.04L274.581 1180.5L257.696 1192.81L163.361 1063.35L180.247 1051.04Z" fill="#F4F4F4"/>
<path d="M295.841 1084.54L158.932 1184.3L146.627 1167.42L283.537 1067.65L295.841 1084.54Z" fill="#F4F4F4"/>
<path d="M8.45353 621.514C2.66711 657.499 -22.2196 683.423 -47.1324 679.417C-72.0453 675.411 -87.5503 642.992 -81.7639 607.007C-75.9775 571.021 -51.0908 545.097 -26.1779 549.103C-1.26508 553.109 14.24 585.528 8.45353 621.514Z" fill="#F4F4F4"/>
<path d="M-84.8843 626.412L-80.9579 601.995L9.25947 616.501L5.33309 640.919C2.81194 656.598 -16.048 685.338 -24.1244 691.291C-32.2007 697.243 -27.9869 693.175 -36.1046 699.384C-44.2223 705.593 -50.606 723.156 -53.5818 741.662L-63.0051 800.265L-69.9449 799.149L-60.5216 740.546C-57.5458 722.04 -58.1019 703.362 -63.8638 694.92C-69.6257 686.479 -66.8998 691.664 -72.703 683.479C-78.5062 675.295 -87.4055 642.091 -84.8843 626.412Z" fill="#F4F4F4"/>
<path d="M-52.7981 1002.43C-47.0116 966.446 -62.5167 934.027 -87.4295 930.021C-112.342 926.015 -137.229 951.939 -143.015 987.925C-148.802 1023.91 -133.297 1056.33 -108.384 1060.34C-83.4712 1064.34 -58.5845 1038.42 -52.7981 1002.43Z" fill="#F4F4F4"/>
<path d="M-139.895 968.519L-143.821 992.937L-53.604 1007.44L-49.6776 983.026C-47.1565 967.347 -56.0558 934.143 -61.859 925.959C-67.6622 917.775 -64.9362 922.959 -70.6981 914.518C-76.46 906.077 -77.0161 887.398 -74.0403 868.892L-64.617 810.289L-71.5568 809.173L-80.9801 867.776C-83.9559 886.282 -90.3396 903.845 -98.4573 910.054C-106.575 916.264 -102.361 912.195 -110.438 918.147C-118.514 924.1 -137.374 952.84 -139.895 968.519Z" fill="#F4F4F4"/>
<path d="M115.925 880.454C79.9393 874.667 54.015 849.78 58.021 824.868C62.027 799.955 94.4463 784.45 130.431 790.236C166.417 796.023 192.341 820.909 188.335 845.822C184.329 870.735 151.91 886.24 115.925 880.454Z" fill="#F4F4F4"/>
<path d="M111.026 787.116L135.444 791.042L120.937 881.259L96.5188 877.333C80.84 874.812 52.0998 855.952 46.1474 847.876C40.195 839.799 44.2635 844.013 38.0541 835.895C31.8447 827.778 14.282 821.394 -4.22409 818.418L-62.8269 808.995L-61.7109 802.055L-3.10817 811.478C15.398 814.454 34.0765 813.898 42.5178 808.136C50.9591 802.374 45.7746 805.1 53.9588 799.297C62.143 793.494 95.347 784.594 111.026 787.116Z" fill="#F4F4F4"/>
<path d="M-264.993 819.202C-229.008 824.988 -196.589 809.483 -192.583 784.571C-188.577 759.658 -214.501 734.771 -250.486 728.985C-286.472 723.198 -318.891 738.703 -322.897 763.616C-326.903 788.529 -300.979 813.416 -264.993 819.202Z" fill="#F4F4F4"/>
<path d="M-231.081 732.105L-255.499 728.179L-270.006 818.396L-245.588 822.322C-229.909 824.844 -196.705 815.944 -188.521 810.141C-180.336 804.338 -185.521 807.064 -177.08 801.302C-168.638 795.54 -149.96 794.984 -131.454 797.96L-72.851 807.383L-71.7351 800.443L-130.338 791.02C-148.844 788.044 -166.407 781.66 -172.616 773.543C-178.825 765.425 -174.757 769.639 -180.709 761.562C-186.662 753.486 -215.402 734.626 -231.081 732.105Z" fill="#F4F4F4"/>
<path d="M115.478 727.964C86.0215 749.429 50.0957 750.299 35.2352 729.906C20.3746 709.513 32.2067 675.581 61.6628 654.116C91.119 632.65 127.045 631.781 141.905 652.174C156.766 672.566 144.934 706.499 115.478 727.964Z" fill="#F4F4F4"/>
<path d="M45.778 665.691L65.7655 651.126L119.58 724.974L99.5928 739.54C86.7587 748.892 53.127 756.006 43.2015 754.541C33.2761 753.077 39.133 753.158 28.9971 751.846C18.8613 750.535 1.95868 758.504 -13.1897 769.543L-61.1597 804.5L-65.2993 798.819L-17.3293 763.862C-2.18092 752.823 10.5821 739.174 12.4388 729.124C14.2954 719.074 12.5781 724.674 14.2244 714.777C15.8706 704.88 32.9439 675.044 45.778 665.691Z" fill="#F4F4F4"/>
<path d="M-196.498 954.947C-167.042 933.482 -155.21 899.549 -170.071 879.157C-184.931 858.764 -220.857 859.633 -250.313 881.099C-279.769 902.564 -291.601 936.496 -276.741 956.889C-261.88 977.282 -225.955 976.412 -196.498 954.947Z" fill="#F4F4F4"/>
<path d="M-234.428 869.523L-254.416 884.088L-200.601 957.937L-180.614 943.372C-167.78 934.019 -150.706 904.183 -149.06 894.286C-147.414 884.389 -149.131 889.989 -147.274 879.939C-145.418 869.889 -132.655 856.24 -117.506 845.201L-69.5363 810.244L-73.6759 804.563L-121.646 839.52C-136.794 850.559 -153.697 858.527 -163.833 857.216C-173.969 855.905 -168.112 855.986 -178.037 854.522C-187.963 853.057 -221.594 860.171 -234.428 869.523Z" fill="#F4F4F4"/>
<path d="M9.42733 987.512C-12.0379 958.055 -12.9073 922.13 7.48538 907.269C27.8781 892.409 61.8106 904.241 83.2759 933.697C104.741 963.153 105.611 999.079 85.2178 1013.94C64.8251 1028.8 30.8926 1016.97 9.42733 987.512Z" fill="#F4F4F4"/>
<path d="M71.7003 917.812L86.2656 937.799L12.4171 991.614L-2.14819 971.627C-11.5006 958.793 -18.6142 925.161 -17.1498 915.236C-15.6854 905.31 -15.766 911.167 -14.4549 901.031C-13.1438 890.895 -21.1125 873.993 -32.1514 858.844L-67.108 810.874L-61.4273 806.735L-26.4707 854.705C-15.4318 869.853 -1.7825 882.616 8.26772 884.473C18.3179 886.329 12.7179 884.612 22.6148 886.258C32.5117 887.905 62.3479 904.978 71.7003 917.812Z" fill="#F4F4F4"/>
<path d="M-217.945 675.819C-196.48 705.275 -162.547 717.107 -142.155 702.246C-121.762 687.386 -122.631 651.46 -144.096 622.004C-165.562 592.548 -199.494 580.716 -219.887 595.576C-240.28 610.437 -239.41 646.363 -217.945 675.819Z" fill="#F4F4F4"/>
<path d="M-132.521 637.889L-147.086 617.901L-220.935 671.716L-206.369 691.704C-197.017 704.538 -167.181 721.611 -157.284 723.257C-147.387 724.903 -152.987 723.186 -142.937 725.043C-132.887 726.899 -119.237 739.663 -108.198 754.811L-73.2418 802.781L-67.5612 798.641L-102.518 750.671C-113.557 735.523 -121.525 718.62 -120.214 708.484C-118.903 698.349 -118.984 704.205 -117.519 694.28C-116.055 684.355 -123.168 650.723 -132.521 637.889Z" fill="#F4F4F4"/>
<path d="M-180.141 771.146L50.4147 808.219L45.579 838.292L-184.977 801.219L-180.141 771.146Z" fill="#F4F4F4"/>
<path d="M-33.7081 691.859L-70.7814 922.415L-100.854 917.579L-63.7805 687.023L-33.7081 691.859Z" fill="#F4F4F4"/>
<path d="M-126.013 697.583L11.5104 886.309L-13.106 904.247L-150.63 715.521L-126.013 697.583Z" fill="#F4F4F4"/>
<path d="M42.5033 746.413L-157.088 891.854L-175.026 867.237L24.5654 721.796L42.5033 746.413Z" fill="#F4F4F4"/>
<path d="M33.8244 349.539C31.2482 365.56 20.1681 377.102 9.07635 375.319C-2.01539 373.535 -8.91857 359.101 -6.34233 343.08C-3.76609 327.058 7.314 315.516 18.4057 317.3C29.4975 319.084 36.4007 333.517 33.8244 349.539Z" fill="#F4F4F4"/>
<path d="M-7.73162 351.72L-5.98351 340.848L34.1832 347.307L32.4351 358.179C31.3127 365.159 22.9158 377.955 19.32 380.605C15.7242 383.255 17.6003 381.444 13.9862 384.208C10.372 386.973 7.52983 394.792 6.20495 403.031L2.00948 429.123L-1.08027 428.626L3.11519 402.535C4.44008 394.295 4.19249 385.979 1.62718 382.221C-0.938133 378.463 0.275501 380.771 -2.30821 377.127C-4.89192 373.483 -8.85412 358.7 -7.73162 351.72Z" fill="#F4F4F4"/>
<path d="M6.55388 519.132C9.13012 503.11 2.22695 488.676 -8.86479 486.893C-19.9565 485.109 -31.0366 496.651 -33.6129 512.673C-36.1891 528.694 -29.2859 543.128 -18.1942 544.911C-7.10244 546.695 3.97764 535.153 6.55388 519.132Z" fill="#F4F4F4"/>
<path d="M-32.2236 504.033L-33.9717 514.904L6.19506 521.363L7.94317 510.492C9.06564 503.511 5.10348 488.728 2.51977 485.084C-0.0639506 481.44 1.1497 483.749 -1.41561 479.99C-3.98093 476.232 -4.22851 467.916 -2.90363 459.677L1.29184 433.586L-1.79792 433.089L-5.99338 459.18C-7.31826 467.419 -10.1604 475.239 -13.7746 478.003C-17.3888 480.768 -15.5127 478.956 -19.1085 481.606C-22.7043 484.257 -31.1011 497.052 -32.2236 504.033Z" fill="#F4F4F4"/>
<path d="M81.6728 464.824C65.6514 462.248 54.1094 451.168 55.8929 440.076C57.6765 428.985 72.1102 422.081 88.1316 424.658C104.153 427.234 115.695 438.314 113.912 449.406C112.128 460.497 97.6942 467.401 81.6728 464.824Z" fill="#F4F4F4"/>
<path d="M79.4918 423.268L90.3631 425.016L83.9043 465.183L73.033 463.435C66.0524 462.313 53.2566 453.916 50.6065 450.32C47.9564 446.724 49.7678 448.6 47.0032 444.986C44.2387 441.372 36.4194 438.53 28.1801 437.205L2.08885 433.009L2.58568 429.92L28.6769 434.115C36.9162 435.44 45.2323 435.192 48.9906 432.627C52.7488 430.062 50.4405 431.275 54.0843 428.692C57.7281 426.108 72.5112 422.146 79.4918 423.268Z" fill="#F4F4F4"/>
<path d="M-87.9201 437.554C-71.8987 440.13 -57.4649 433.227 -55.6814 422.135C-53.8978 411.043 -65.4399 399.963 -81.4613 397.387C-97.4827 394.811 -111.916 401.714 -113.7 412.806C-115.484 423.898 -103.941 434.978 -87.9201 437.554Z" fill="#F4F4F4"/>
<path d="M-72.8214 398.776L-83.6928 397.028L-90.1516 437.195L-79.2802 438.943C-72.2997 440.066 -57.5166 436.103 -53.8728 433.52C-50.229 430.936 -52.5372 432.15 -48.779 429.584C-45.0208 427.019 -36.7047 426.771 -28.4653 428.096L-2.37412 432.292L-1.87729 429.202L-27.9685 425.007C-36.2078 423.682 -44.0271 420.84 -46.7917 417.225C-49.5562 413.611 -47.7448 415.487 -50.395 411.891C-53.0451 408.296 -65.8409 399.899 -72.8214 398.776Z" fill="#F4F4F4"/>
<path d="M81.4738 396.933C68.3593 406.49 52.3644 406.877 45.7482 397.797C39.1319 388.718 44.3998 373.611 57.5143 364.054C70.6288 354.497 86.6238 354.11 93.24 363.189C99.8562 372.269 94.5883 387.376 81.4738 396.933Z" fill="#F4F4F4"/>
<path d="M50.4421 369.208L59.3409 362.723L83.3005 395.602L74.4016 402.086C68.6876 406.25 53.714 409.417 49.295 408.766C44.876 408.114 47.4836 408.149 42.9709 407.566C38.4582 406.982 30.9328 410.53 24.1884 415.445L2.8311 431.008L0.988056 428.479L22.3453 412.915C29.0897 408.001 34.7721 401.924 35.5987 397.449C36.4253 392.975 35.6608 395.468 36.3937 391.061C37.1267 386.655 44.7281 373.371 50.4421 369.208Z" fill="#F4F4F4"/>
<path d="M-57.4246 497.991C-44.3101 488.434 -39.0422 473.326 -45.6585 464.247C-52.2747 455.168 -68.2696 455.555 -81.3841 465.112C-94.4986 474.668 -99.7665 489.776 -93.1503 498.855C-86.5341 507.934 -70.5391 507.547 -57.4246 497.991Z" fill="#F4F4F4"/>
<path d="M-74.3119 459.958L-83.2107 466.443L-59.2512 499.322L-50.3524 492.837C-44.6384 488.673 -37.0369 475.389 -36.304 470.983C-35.571 466.577 -36.3356 469.07 -35.509 464.595C-34.6824 460.121 -29 454.044 -22.2556 449.129L-0.898333 433.566L-2.74138 431.036L-24.0986 446.6C-30.843 451.515 -38.3685 455.062 -42.8811 454.479C-47.3938 453.895 -44.7862 453.931 -49.2053 453.279C-53.6243 452.627 -68.5979 455.794 -74.3119 459.958Z" fill="#F4F4F4"/>
<path d="M34.258 512.489C24.7012 499.374 24.3141 483.379 33.3934 476.763C42.4726 470.147 57.5801 475.415 67.1369 488.529C76.6937 501.644 77.0808 517.639 68.0015 524.255C58.9223 530.871 43.8147 525.603 34.258 512.489Z" fill="#F4F4F4"/>
<path d="M61.9832 481.457L68.468 490.356L35.5891 514.316L29.1043 505.417C24.9404 499.703 21.7733 484.729 22.4253 480.31C23.0772 475.891 23.0414 478.499 23.6251 473.986C24.2088 469.473 20.661 461.948 15.7462 455.203L0.18279 433.846L2.71194 432.003L18.2754 453.36C23.1901 460.105 29.2671 465.787 33.7417 466.614C38.2163 467.44 35.723 466.676 40.1293 467.409C44.5356 468.142 57.8194 475.743 61.9832 481.457Z" fill="#F4F4F4"/>
<path d="M-66.9731 373.717C-57.4163 386.831 -42.3088 392.099 -33.2295 385.483C-24.1503 378.866 -24.5374 362.872 -34.0941 349.757C-43.6509 336.643 -58.7584 331.375 -67.8377 337.991C-76.917 344.607 -76.5299 360.602 -66.9731 373.717Z" fill="#F4F4F4"/>
<path d="M-28.9405 356.829L-35.4252 347.93L-68.3042 371.89L-61.8194 380.789C-57.6555 386.503 -44.3718 394.104 -39.9655 394.837C-35.5592 395.57 -38.0524 394.806 -33.5779 395.632C-29.1033 396.459 -23.0263 402.141 -18.1116 408.886L-2.54812 430.243L-0.0189676 428.4L-15.5824 407.043C-20.4972 400.298 -24.045 392.773 -23.4613 388.26C-22.8775 383.747 -22.9134 386.355 -22.2614 381.936C-21.6095 377.517 -24.7765 362.543 -28.9405 356.829Z" fill="#F4F4F4"/>
<path d="M-50.1419 416.158L52.5064 432.664L50.3535 446.053L-52.2949 429.547L-50.1419 416.158Z" fill="#F4F4F4"/>
<path d="M15.0532 380.858L-1.45269 483.506L-14.8416 481.353L1.66424 378.705L15.0532 380.858Z" fill="#F4F4F4"/>
<path d="M-26.0432 383.406L35.1854 467.431L24.2256 475.418L-37.0029 391.393L-26.0432 383.406Z" fill="#F4F4F4"/>
<path d="M48.9841 405.146L-39.8781 469.9L-47.8644 458.94L40.9978 394.187L48.9841 405.146Z" fill="#F4F4F4"/>
<path d="M435.352 250.327C433.653 260.893 426.346 268.504 419.032 267.328C411.717 266.152 407.165 256.633 408.864 246.068C410.563 235.503 417.87 227.892 425.184 229.068C432.498 230.244 437.051 239.762 435.352 250.327Z" fill="#F4F4F4"/>
<path d="M407.948 251.766L409.101 244.597L435.588 248.856L434.436 256.025C433.695 260.628 428.158 269.066 425.787 270.814C423.416 272.561 424.653 271.367 422.27 273.19C419.886 275.013 418.012 280.169 417.138 285.603L414.372 302.809L412.334 302.481L415.101 285.275C415.975 279.842 415.811 274.358 414.12 271.879C412.428 269.401 413.228 270.923 411.524 268.52C409.821 266.118 407.208 256.369 407.948 251.766Z" fill="#F4F4F4"/>
<path d="M417.368 362.164C419.067 351.599 414.515 342.081 407.201 340.905C399.886 339.729 392.58 347.34 390.881 357.905C389.182 368.47 393.734 377.989 401.048 379.165C408.363 380.341 415.67 372.73 417.368 362.164Z" fill="#F4F4F4"/>
<path d="M391.797 352.208L390.644 359.377L417.132 363.636L418.285 356.467C419.025 351.864 416.412 342.115 414.708 339.712C413.004 337.309 413.805 338.831 412.113 336.353C410.421 333.875 410.258 328.391 411.132 322.957L413.898 305.752L411.861 305.424L409.094 322.63C408.221 328.063 406.346 333.219 403.963 335.042C401.58 336.866 402.817 335.671 400.446 337.419C398.074 339.166 392.537 347.604 391.797 352.208Z" fill="#F4F4F4"/>
<path d="M466.905 326.352C456.34 324.653 448.729 317.346 449.905 310.032C451.081 302.717 460.599 298.165 471.164 299.864C481.73 301.563 489.341 308.87 488.165 316.184C486.989 323.498 477.47 328.051 466.905 326.352Z" fill="#F4F4F4"/>
<path d="M465.467 298.948L472.636 300.101L468.377 326.588L461.208 325.436C456.604 324.695 448.166 319.158 446.419 316.787C444.671 314.416 445.866 315.653 444.042 313.27C442.219 310.886 437.063 309.012 431.63 308.138L414.424 305.372L414.752 303.334L431.957 306.101C437.391 306.974 442.875 306.811 445.353 305.12C447.831 303.428 446.309 304.228 448.712 302.524C451.115 300.821 460.864 298.208 465.467 298.948Z" fill="#F4F4F4"/>
<path d="M355.068 308.368C365.633 310.067 375.152 305.515 376.328 298.201C377.504 290.886 369.893 283.58 359.327 281.881C348.762 280.182 339.244 284.734 338.068 292.048C336.892 299.363 344.503 306.67 355.068 308.368Z" fill="#F4F4F4"/>
<path d="M365.025 282.797L357.856 281.644L353.597 308.132L360.766 309.285C365.369 310.025 375.118 307.412 377.52 305.708C379.923 304.004 378.401 304.805 380.88 303.113C383.358 301.421 388.842 301.258 394.275 302.132L411.481 304.898L411.809 302.861L394.603 300.094C389.17 299.221 384.013 297.346 382.19 294.963C380.367 292.58 381.562 293.817 379.814 291.446C378.066 289.074 369.628 283.537 365.025 282.797Z" fill="#F4F4F4"/>
<path d="M466.774 281.581C458.126 287.883 447.578 288.139 443.215 282.151C438.852 276.164 442.326 266.201 450.974 259.899C459.622 253.597 470.17 253.342 474.533 259.329C478.896 265.316 475.422 275.279 466.774 281.581Z" fill="#F4F4F4"/>
<path d="M446.31 263.298L452.179 259.022L467.978 280.703L462.11 284.98C458.342 287.726 448.468 289.814 445.554 289.384C442.64 288.954 444.359 288.978 441.383 288.593C438.408 288.208 433.445 290.548 428.997 293.789L414.913 304.052L413.698 302.384L427.782 292.121C432.23 288.88 435.977 284.872 436.522 281.922C437.067 278.971 436.563 280.615 437.046 277.709C437.529 274.804 442.542 266.044 446.31 263.298Z" fill="#F4F4F4"/>
<path d="M375.178 348.223C383.827 341.921 387.3 331.958 382.937 325.971C378.574 319.984 368.027 320.239 359.378 326.541C350.73 332.843 347.256 342.806 351.619 348.793C355.982 354.78 366.53 354.525 375.178 348.223Z" fill="#F4F4F4"/>
<path d="M364.042 323.143L358.174 327.419L373.974 349.101L379.842 344.824C383.61 342.079 388.623 333.319 389.106 330.413C389.589 327.507 389.085 329.151 389.63 326.201C390.175 323.25 393.923 319.243 398.37 316.002L412.454 305.738L411.239 304.071L397.155 314.334C392.707 317.575 387.745 319.914 384.769 319.529C381.793 319.144 383.513 319.168 380.598 318.738C377.684 318.308 367.81 320.397 364.042 323.143Z" fill="#F4F4F4"/>
<path d="M435.638 357.784C429.336 349.136 429.08 338.588 435.068 334.225C441.055 329.862 451.017 333.336 457.32 341.984C463.622 350.632 463.877 361.18 457.89 365.543C451.902 369.906 441.94 366.432 435.638 357.784Z" fill="#F4F4F4"/>
<path d="M453.921 337.32L458.197 343.188L436.515 358.988L432.239 353.12C429.493 349.352 427.405 339.478 427.835 336.564C428.265 333.65 428.241 335.369 428.626 332.393C429.011 329.417 426.671 324.455 423.43 320.007L413.167 305.923L414.835 304.708L425.098 318.792C428.339 323.239 432.347 326.987 435.297 327.532C438.248 328.077 436.604 327.573 439.51 328.056C442.415 328.539 451.175 333.552 453.921 337.32Z" fill="#F4F4F4"/>
<path d="M368.882 266.271C375.184 274.92 385.146 278.393 391.134 274.03C397.121 269.667 396.866 259.12 390.563 250.471C384.261 241.823 374.299 238.349 368.311 242.712C362.324 247.075 362.579 257.623 368.882 266.271Z" fill="#F4F4F4"/>
<path d="M393.962 255.135L389.686 249.267L368.004 265.067L372.28 270.935C375.026 274.703 383.786 279.716 386.692 280.199C389.597 280.683 387.953 280.178 390.904 280.723C393.855 281.269 397.862 285.016 401.103 289.463L411.366 303.547L413.034 302.332L402.771 288.248C399.53 283.8 397.19 278.838 397.575 275.862C397.96 272.886 397.936 274.606 398.366 271.692C398.796 268.777 396.708 258.903 393.962 255.135Z" fill="#F4F4F4"/>
<path d="M379.981 294.259L447.672 305.144L446.252 313.973L378.561 303.089L379.981 294.259Z" fill="#F4F4F4"/>
<path d="M422.973 270.981L412.089 338.671L403.259 337.252L414.144 269.561L422.973 270.981Z" fill="#F4F4F4"/>
<path d="M395.873 272.661L436.249 328.071L429.022 333.337L388.645 277.928L395.873 272.661Z" fill="#F4F4F4"/>
<path d="M445.349 286.998L386.749 329.699L381.483 322.471L440.082 279.77L445.349 286.998Z" fill="#F4F4F4"/>
<path d="M614.866 993.009C611.45 1014.25 596.759 1029.56 582.053 1027.19C567.346 1024.83 558.193 1005.69 561.609 984.445C565.025 963.203 579.716 947.899 594.422 950.264C609.129 952.629 618.282 971.766 614.866 993.009Z" fill="#F4F4F4"/>
<path d="M559.767 995.901L562.085 981.487L615.342 990.05L613.024 1004.46C611.536 1013.72 600.402 1030.69 595.635 1034.2C590.867 1037.71 593.354 1035.31 588.562 1038.98C583.77 1042.64 580.002 1053.01 578.245 1063.93L572.683 1098.53L568.586 1097.87L574.149 1063.28C575.905 1052.35 575.577 1041.33 572.176 1036.34C568.774 1031.36 570.384 1034.42 566.958 1029.59C563.532 1024.76 558.279 1005.16 559.767 995.901Z" fill="#F4F4F4"/>
<path d="M578.708 1217.87C582.124 1196.63 572.971 1177.49 558.264 1175.13C543.558 1172.76 528.867 1188.07 525.451 1209.31C522.035 1230.55 531.188 1249.69 545.895 1252.05C560.601 1254.42 575.292 1239.11 578.708 1217.87Z" fill="#F4F4F4"/>
<path d="M527.293 1197.85L524.975 1212.27L578.232 1220.83L580.55 1206.42C582.038 1197.16 576.785 1177.56 573.359 1172.73C569.933 1167.9 571.543 1170.96 568.141 1165.97C564.74 1160.99 564.412 1149.97 566.168 1139.04L571.731 1104.45L567.634 1103.79L562.072 1138.38C560.315 1149.31 556.547 1159.67 551.755 1163.34C546.963 1167.01 549.45 1164.6 544.682 1168.12C539.915 1171.63 528.781 1188.6 527.293 1197.85Z" fill="#F4F4F4"/>
<path d="M678.308 1145.87C657.065 1142.45 641.762 1127.76 644.126 1113.05C646.491 1098.35 665.629 1089.19 686.872 1092.61C708.114 1096.02 723.418 1110.72 721.053 1125.42C718.688 1140.13 699.551 1149.28 678.308 1145.87Z" fill="#F4F4F4"/>
<path d="M675.416 1090.77L689.83 1093.08L681.267 1146.34L666.852 1144.02C657.597 1142.54 640.631 1131.4 637.117 1126.63C633.603 1121.87 636.005 1124.35 632.34 1119.56C628.674 1114.77 618.307 1111 607.382 1109.25L572.788 1103.68L573.447 1099.59L608.041 1105.15C618.965 1106.91 629.992 1106.58 634.975 1103.18C639.958 1099.77 636.897 1101.38 641.728 1097.96C646.56 1094.53 666.161 1089.28 675.416 1090.77Z" fill="#F4F4F4"/>
<path d="M453.445 1109.71C474.688 1113.12 493.826 1103.97 496.191 1089.26C498.555 1074.56 483.252 1059.87 462.009 1056.45C440.766 1053.04 421.629 1062.19 419.264 1076.89C416.899 1091.6 432.203 1106.29 453.445 1109.71Z" fill="#F4F4F4"/>
<path d="M473.465 1058.29L459.05 1055.98L450.487 1109.23L464.901 1111.55C474.156 1113.04 493.757 1107.78 498.589 1104.36C503.42 1100.93 500.359 1102.54 505.342 1099.14C510.325 1095.74 521.352 1095.41 532.276 1097.17L566.87 1102.73L567.529 1098.63L532.935 1093.07C522.01 1091.31 511.643 1087.55 507.977 1082.75C504.312 1077.96 506.714 1080.45 503.2 1075.68C499.686 1070.91 482.72 1059.78 473.465 1058.29Z" fill="#F4F4F4"/>
<path d="M678.044 1055.85C660.656 1068.52 639.448 1069.03 630.676 1057C621.903 1044.96 628.888 1024.93 646.276 1012.25C663.665 999.583 684.872 999.07 693.645 1011.11C702.417 1023.15 695.433 1043.18 678.044 1055.85Z" fill="#F4F4F4"/>
<path d="M636.899 1019.09L648.698 1010.49L680.466 1054.08L668.667 1062.68C661.091 1068.2 641.237 1072.4 635.378 1071.54C629.519 1070.67 632.977 1070.72 626.993 1069.95C621.01 1069.17 611.032 1073.88 602.089 1080.39L573.772 1101.03L571.328 1097.68L599.646 1077.04C608.588 1070.52 616.122 1062.47 617.218 1056.53C618.314 1050.6 617.301 1053.91 618.273 1048.06C619.244 1042.22 629.323 1024.61 636.899 1019.09Z" fill="#F4F4F4"/>
<path d="M493.879 1189.84C511.268 1177.17 518.252 1157.14 509.48 1145.1C500.707 1133.06 479.5 1133.58 462.111 1146.25C444.723 1158.92 437.738 1178.95 446.511 1190.99C455.283 1203.03 476.491 1202.51 493.879 1189.84Z" fill="#F4F4F4"/>
<path d="M471.488 1139.41L459.689 1148.01L491.457 1191.61L503.256 1183.01C510.832 1177.49 520.911 1159.87 521.883 1154.03C522.855 1148.19 521.841 1151.49 522.937 1145.56C524.033 1139.63 531.567 1131.57 540.51 1125.06L568.827 1104.42L566.383 1101.07L538.066 1121.7C529.124 1128.22 519.146 1132.92 513.162 1132.15C507.179 1131.37 510.636 1131.42 504.777 1130.56C498.918 1129.69 479.065 1133.89 471.488 1139.41Z" fill="#F4F4F4"/>
<path d="M615.441 1209.06C602.769 1191.68 602.256 1170.47 614.294 1161.7C626.333 1152.92 646.364 1159.91 659.035 1177.3C671.706 1194.68 672.219 1215.89 660.181 1224.66C648.143 1233.44 628.112 1226.45 615.441 1209.06Z" fill="#F4F4F4"/>
<path d="M652.202 1167.92L660.8 1179.72L617.206 1211.49L608.608 1199.69C603.087 1192.11 598.887 1172.26 599.752 1166.4C600.616 1160.54 600.569 1164 601.343 1158.01C602.117 1152.03 597.413 1142.05 590.896 1133.11L570.261 1104.79L573.614 1102.35L594.249 1130.67C600.766 1139.61 608.823 1147.14 614.756 1148.24C620.689 1149.33 617.383 1148.32 623.226 1149.29C629.068 1150.26 646.681 1160.34 652.202 1167.92Z" fill="#F4F4F4"/>
<path d="M481.219 1025.07C493.89 1042.45 513.921 1049.44 525.959 1040.67C537.997 1031.89 537.484 1010.69 524.813 993.299C512.142 975.91 492.111 968.925 480.072 977.698C468.034 986.47 468.548 1007.68 481.219 1025.07Z" fill="#F4F4F4"/>
<path d="M531.646 1002.68L523.048 990.877L479.454 1022.64L488.052 1034.44C493.573 1042.02 511.186 1052.1 517.028 1053.07C522.87 1054.04 519.565 1053.03 525.497 1054.12C531.43 1055.22 539.488 1062.75 546.004 1071.7L566.64 1100.01L569.993 1097.57L549.358 1069.25C542.841 1060.31 538.137 1050.33 538.911 1044.35C539.685 1038.37 539.637 1041.82 540.502 1035.96C541.366 1030.11 537.167 1010.25 531.646 1002.68Z" fill="#F4F4F4"/>
<path d="M503.535 1081.34L639.636 1103.22L636.782 1120.98L500.681 1099.09L503.535 1081.34Z" fill="#F4F4F4"/>
<path d="M589.977 1034.54L568.092 1170.64L550.34 1167.78L572.225 1031.68L589.977 1034.54Z" fill="#F4F4F4"/>
<path d="M535.488 1037.91L616.67 1149.32L602.139 1159.91L520.956 1048.5L535.488 1037.91Z" fill="#F4F4F4"/>
<path d="M634.966 1066.74L517.144 1152.6L506.555 1138.06L624.377 1052.21L634.966 1066.74Z" fill="#F4F4F4"/>
</g>
</svg>
