<svg width="51" height="51" viewBox="0 0 51 51" fill="none" xmlns="http://www.w3.org/2000/svg">
<path d="M30 6.5C30 10.0899 27.9853 13 25.5 13C23.0147 13 21 10.0899 21 6.5C21 2.91015 23.0147 0 25.5 0C27.9853 0 30 2.91015 30 6.5Z" fill="#7008e7"/>
<path d="M21 8.4359V6H30V8.4359C30 10 28.6154 13.0897 27.9231 13.7949C27.2308 14.5 27.5769 14.0385 26.8846 14.7692C26.1923 15.5 25.8462 17.3077 25.8462 19.1538V25H25.1538V19.1538C25.1538 17.3077 24.8077 15.5 24.1154 14.7692C23.4231 14.0385 23.7692 14.5 23.0769 13.7949C22.3846 13.0897 21 10 21 8.4359Z" fill="#7008e7"/>
<path d="M30 44.5C30 40.9101 27.9853 38 25.5 38C23.0147 38 21 40.9101 21 44.5C21 48.0899 23.0147 51 25.5 51C27.9853 51 30 48.0899 30 44.5Z" fill="#7008e7"/>
<path d="M21 42.5641V45H30V42.5641C30 41 28.6154 37.9103 27.9231 37.2051C27.2308 36.5 27.5769 36.9615 26.8846 36.2308C26.1923 35.5 25.8462 33.6923 25.8462 31.8462V26H25.1538V31.8462C25.1538 33.6923 24.8077 35.5 24.1154 36.2308C23.4231 36.9615 23.7692 36.5 23.0769 37.2051C22.3846 37.9103 21 41 21 42.5641Z" fill="#7008e7"/>
<path d="M44.5 30C40.9101 30 38 27.9853 38 25.5C38 23.0147 40.9101 21 44.5 21C48.0899 21 51 23.0147 51 25.5C51 27.9853 48.0899 30 44.5 30Z" fill="#7008e7"/>
<path d="M42.5641 21H45V30H42.5641C41 30 37.9103 28.6154 37.2051 27.9231C36.5 27.2308 36.9615 27.5769 36.2308 26.8846C35.5 26.1923 33.6923 25.8462 31.8462 25.8462H26V25.1538H31.8462C33.6923 25.1538 35.5 24.8077 36.2308 24.1154C36.9615 23.4231 36.5 23.7692 37.2051 23.0769C37.9103 22.3846 41 21 42.5641 21Z" fill="#7008e7"/>
<path d="M6.5 30C10.0899 30 13 27.9853 13 25.5C13 23.0147 10.0899 21 6.5 21C2.91015 21 0 23.0147 0 25.5C0 27.9853 2.91015 30 6.5 30Z" fill="#7008e7"/>
<path d="M8.4359 21H6V30H8.4359C10 30 13.0897 28.6154 13.7949 27.9231C14.5 27.2308 14.0385 27.5769 14.7692 26.8846C15.5 26.1923 17.3077 25.8462 19.1538 25.8462H25V25.1538H19.1538C17.3077 25.1538 15.5 24.8077 14.7692 24.1154C14.0385 23.4231 14.5 23.7692 13.7949 23.0769C13.0897 22.3846 10 21 8.4359 21Z" fill="#7008e7"/>
<path d="M42.0721 15.1782C39.5433 17.7262 36.0633 18.3725 34.2993 16.6218C32.5353 14.8711 33.1553 11.3863 35.6841 8.83835C38.2129 6.29037 41.6929 5.64405 43.4569 7.39476C45.2209 9.14547 44.6009 12.6302 42.0721 15.1782Z" fill="#7008e7"/>
<path d="M34.3204 10.2124L36.0363 8.48346L42.4243 14.8233L40.7084 16.5523C39.6066 17.6624 36.4473 18.8801 35.4592 18.8929C34.4711 18.9057 35.0419 18.8219 34.0358 18.8529C33.0296 18.8839 31.5105 19.9231 30.21 21.2335L26.0918 25.3829L25.6004 24.8953L29.7187 20.7458C31.0191 19.4355 32.0468 17.9086 32.0702 16.9022C32.0936 15.8958 32.0142 16.4673 32.0195 15.4791C32.0249 14.4909 33.2186 11.3226 34.3204 10.2124Z" fill="#7008e7"/>
<path d="M15.2834 42.1294C17.8122 39.5815 18.4322 36.0967 16.6682 34.346C14.9042 32.5953 11.4242 33.2416 8.89545 35.7896C6.36665 38.3375 5.74664 41.8223 7.51063 43.573C9.27462 45.3237 12.7546 44.6774 15.2834 42.1294Z" fill="#7008e7"/>
<path d="M10.2592 34.4155L8.54323 36.1445L14.9312 42.4843L16.6471 40.7554C17.7489 39.6452 18.9427 36.4768 18.948 35.4887C18.9533 34.5005 18.8739 35.0719 18.8973 34.0656C18.9207 33.0592 19.9484 31.5323 21.2489 30.222L25.3671 26.0725L24.8757 25.5849L20.7575 29.7343C19.457 31.0447 17.9379 32.0839 16.9318 32.1149C15.9256 32.1459 16.4964 32.0621 15.5083 32.0749C14.5202 32.0877 11.3609 33.3054 10.2592 34.4155Z" fill="#7008e7"/>
<path d="M35.8178 42.0761C33.2698 39.5473 32.6235 36.0673 34.3742 34.3033C36.1249 32.5393 39.6097 33.1593 42.1577 35.6881C44.7056 38.2169 45.3519 41.6969 43.6012 43.4609C41.8505 45.2249 38.3658 44.6049 35.8178 42.0761Z" fill="#7008e7"/>
<path d="M40.7836 34.3244L42.5125 36.0404L36.1727 42.4283L34.4437 40.7124C33.3336 39.6106 32.1159 36.4513 32.1031 35.4632C32.0903 34.4751 32.1741 35.0459 32.1431 34.0398C32.1121 33.0336 31.0729 31.5145 29.7625 30.2141L25.6131 26.0959L26.1008 25.6045L30.2502 29.7227C31.5605 31.0232 33.0874 32.0509 34.0938 32.0743C35.1002 32.0977 34.5287 32.0182 35.5169 32.0236C36.5051 32.0289 39.6735 33.2226 40.7836 34.3244Z" fill="#7008e7"/>
<path d="M8.83313 15.3211C11.3811 17.8499 14.8659 18.4699 16.6166 16.7059C18.3673 14.9419 17.721 11.4619 15.173 8.93311C12.625 6.40431 9.14025 5.7843 7.38954 7.54829C5.63884 9.31227 6.28515 12.7923 8.83313 15.3211Z" fill="#7008e7"/>
<path d="M16.5471 10.2968L14.8181 8.58089L8.47825 14.9689L10.2072 16.6848C11.3173 17.7866 14.4857 18.9803 15.4739 18.9856C16.462 18.991 15.8906 18.9116 16.897 18.9349C17.9033 18.9583 19.4302 19.986 20.7406 21.2865L24.89 25.4047L25.3777 24.9134L21.2283 20.7951C19.9179 19.4947 18.8787 17.9756 18.8477 16.9694C18.8167 15.9633 18.9005 16.5341 18.8877 15.546C18.8749 14.5579 17.6572 11.3986 16.5471 10.2968Z" fill="#7008e7"/>
<path d="M14 24H37V27H14V24Z" fill="#7008e7"/>
<path d="M27 14V37H24V14H27Z" fill="#7008e7"/>
<path d="M18.1133 16L34.4379 32.2021L32.3245 34.3314L16 18.1293L18.1133 16Z" fill="#7008e7"/>
<path d="M35.2642 18.1133L18.1293 35.3777L16 33.2643L33.1349 16L35.2642 18.1133Z" fill="#7008e7"/>
</svg>
