<svg xmlns="http://www.w3.org/2000/svg" height="24px" viewBox="0 -960 960 960" width="24px" fill="#434343"><path d="M200-200v-560 173.23-20.92V-200Zm120-250h151q12.77 0 21.38-8.62Q501-467.23 501-480t-8.62-21.38Q483.77-510 471-510H320q-12.77 0-21.38 8.62Q290-492.77 290-480t8.62 21.38Q307.23-450 320-450Zm0 160h151q12.77 0 21.38-8.62Q501-307.23 501-320t-8.62-21.38Q483.77-350 471-350H320q-12.77 0-21.38 8.62Q290-332.77 290-320t8.62 21.38Q307.23-290 320-290Zm0-320h320q12.77 0 21.38-8.62Q670-627.23 670-640t-8.62-21.38Q652.77-670 640-670H320q-12.77 0-21.38 8.62Q290-652.77 290-640t8.62 21.38Q307.23-610 320-610ZM212.31-140Q182-140 161-161q-21-21-21-51.31v-535.38Q140-778 161-799q21-21 51.31-21h535.38Q778-820 799-799q21 21 21 51.31v158.77q0 12.77-8.62 21.38-8.61 8.62-21.38 8.62t-21.38-8.62q-8.62-8.61-8.62-21.38v-158.77q0-4.62-3.85-8.46-3.84-3.85-8.46-3.85H212.31q-4.62 0-8.46 3.85-3.85 3.84-3.85 8.46v535.38q0 4.62 3.85 8.46 3.84 3.85 8.46 3.85H370q12.77 0 21.38 8.62Q400-182.77 400-170t-8.62 21.38Q382.77-140 370-140H212.31ZM614-366.31q-26.31-26.31-26.31-63.69 0-37.39 26.31-63.69Q640.31-520 677.69-520q37.39 0 63.69 26.31 26.31 26.3 26.31 63.69 0 37.38-26.31 63.69Q715.08-340 677.69-340q-37.38 0-63.69-26.31ZM677.69-280q37.85 0 75.19 7.31 37.35 7.31 72.97 21.92 19.92 7.85 30.88 25.65 10.96 17.81 10.96 39.12v9.84q0 15.47-10.34 25.81Q847-140 831.54-140H523.85q-15.46 0-25.81-10.35-10.35-10.34-10.35-25.81V-186q0-21.31 10.96-39.12 10.97-17.8 30.89-25.65 34.84-14.61 72.19-21.92 37.35-7.31 75.96-7.31Z"/></svg>